<svg width="1920" height="474" viewBox="0 0 1920 474" fill="none" xmlns="http://www.w3.org/2000/svg">
<g opacity="0.6">
<path d="M689.054 473.76C679.508 473.76 670.218 473.373 661.289 472.601C642.563 470.981 625.263 467.654 609.869 462.712C593.322 457.402 578.81 450.166 566.731 441.207C542.456 423.199 530.31 401.634 518.564 380.778C516.256 376.682 513.871 372.448 511.448 368.339C494.92 340.335 473.968 315.805 447.399 293.347C394.399 248.548 319.863 210.315 231.845 182.781C130.053 150.941 20.6106 135.08 -76.3251 138.121C-133.299 139.91 -208.577 156.915 -242.221 185.956C-262.187 203.191 -263.797 222.318 -246.874 241.266L-247.21 241.346C-256.083 231.409 -259.949 221.447 -258.698 211.737C-257.549 202.829 -252.114 194.122 -242.539 185.857C-227.31 172.711 -202.196 161.06 -169.912 152.161C-140.079 143.94 -106.852 138.886 -76.3473 137.929C-25.6177 136.339 28.3356 139.868 84.0134 148.421C134.484 156.175 184.287 167.679 232.037 182.615C320.107 210.164 394.687 248.418 447.717 293.244C474.3 315.717 495.264 340.261 511.803 368.28C514.229 372.389 516.614 376.625 518.919 380.72C530.654 401.561 542.792 423.112 567.034 441.093C590.479 458.485 622.213 469.021 661.351 472.407C715.552 477.097 781.37 467.288 837.409 446.164C918.168 415.726 974.215 371.42 1028.42 328.575C1037.92 321.065 1047.74 313.299 1057.47 305.801C1082.72 286.329 1116.92 261.097 1157.56 238.618C1199.1 215.642 1241.32 198.761 1286.62 187.008C1314.34 179.815 1343.73 174.968 1373.96 172.604C1401.88 170.419 1431.43 170.284 1461.8 172.198C1513.88 175.483 1569.99 184.762 1633.35 200.564C1758.08 231.682 1882.69 269.451 2003.7 312.827C2118.71 354.053 2231.51 400.704 2338.97 451.478L2338.72 451.619C2115.97 346.365 1878.6 261.957 1633.18 200.736C1494.53 166.148 1384.46 161.839 1286.78 187.178C1187.41 212.955 1117.99 259.474 1057.78 305.906C1048.05 313.402 1038.23 321.168 1028.73 328.678C974.51 371.538 918.445 415.857 837.631 446.317C811.517 456.161 782.138 463.839 752.674 468.519C737.11 470.992 721.638 472.609 706.682 473.326C700.722 473.617 694.84 473.76 689.054 473.76Z" fill="white"/>
<path d="M698.387 463.082C674.045 463.082 651.497 460.689 631.347 455.966C608.877 450.7 589.487 442.54 573.712 431.714C572.316 430.755 570.931 429.764 569.594 428.765C545.577 410.835 532.893 389.55 520.63 368.964C518.148 364.804 515.586 360.501 512.986 356.325C497.503 331.463 478.859 309.551 455.983 289.339C453.165 286.851 450.248 284.357 447.305 281.928C393.525 237.514 318.384 199.765 230.004 172.762C127.477 141.465 17.7245 126.26 -79.0377 129.95C-135.598 132.129 -210.529 149.412 -244.317 178.23C-264.549 195.487 -266.838 214.652 -250.945 233.655L-251.285 233.731C-259.616 223.771 -263.039 213.79 -261.454 204.068C-260 195.14 -254.342 186.413 -244.635 178.131C-229.251 165.008 -204.211 153.343 -172.229 144.4C-142.669 136.133 -109.587 130.933 -79.0709 129.759C-28.4041 127.827 25.6082 131.019 81.4633 139.244C132.056 146.695 182.095 157.917 230.188 172.598C318.62 199.617 393.802 237.388 447.615 281.827C450.558 284.258 453.479 286.754 456.297 289.244C479.187 309.469 497.843 331.393 513.333 356.268C515.937 360.444 518.499 364.747 520.981 368.909C533.24 389.481 545.913 410.751 569.897 428.656C571.23 429.651 572.615 430.643 574.007 431.6C606.606 453.978 651.398 463.082 698.501 463.082C698.76 463.082 699.014 463.082 699.273 463.082C698.977 463.08 698.682 463.082 698.387 463.082ZM708.434 462.948C752.225 461.787 797.412 453.099 836.178 440.174C919.798 412.179 979.896 368.941 1038.02 327.128C1040.41 325.404 1042.8 323.685 1045.2 321.965C1050.45 318.19 1056.68 313.721 1063.04 309.215C1091.56 289.011 1126.09 265.503 1165.85 244.343C1208.15 221.828 1250.41 205.121 1295.04 193.264C1322.47 185.986 1351.45 180.859 1381.19 178.026C1408.74 175.401 1437.86 174.659 1467.72 175.82C1519.31 177.828 1574.78 185.439 1637.31 199.09C1698.26 212.379 1748.37 224.889 1795 238.458C1861.05 257.699 1923.97 279.869 1976.81 299.017C2099.65 343.662 2220.18 394.356 2335.05 449.693L2334.8 449.833C2219.94 394.503 2099.43 343.812 1976.6 299.173C1923.77 280.027 1860.86 257.861 1794.82 238.626C1748.21 225.06 1698.11 212.555 1637.16 199.27C1500.96 169.53 1392.3 167.675 1295.21 193.435C1194.45 220.2 1122.69 267.291 1063.34 309.33C1056.98 313.835 1050.75 318.302 1045.5 322.079C1043.1 323.797 1040.71 325.519 1038.32 327.242C980.176 369.069 920.056 412.322 836.377 440.338C815.628 447.255 793.55 452.75 770.751 456.668C749.53 460.311 728.611 462.418 708.434 462.948Z" fill="white"/>
<path d="M708.678 452.647C705.749 452.647 702.84 452.615 699.952 452.548C675.632 451.993 653.125 449.112 633.06 443.982C611.114 438.371 592.101 430.06 576.551 419.278C575.17 418.317 573.793 417.324 572.463 416.325C548.716 398.483 535.504 377.481 522.731 357.174C520.068 352.942 517.314 348.564 514.522 344.316C498.274 319.538 479.139 297.801 456.016 277.862C453.154 275.397 450.192 272.924 447.205 270.514C392.646 226.487 316.899 189.222 228.157 162.749C124.9 131.996 14.8365 117.445 -81.7558 121.782C-136.141 124.263 -210.854 140.56 -246.378 170.478C-266.901 187.764 -269.889 206.98 -255.018 226.05L-255.362 226.121C-263.153 216.13 -266.126 206.126 -264.206 196.387C-262.441 187.43 -256.547 178.681 -246.692 170.379C-231.146 157.287 -206.187 145.618 -174.511 136.633C-145.229 128.326 -112.298 122.985 -81.789 121.593C-31.1813 119.323 22.8902 122.175 78.9187 130.072C129.637 137.222 179.909 148.16 228.342 162.585C317.135 189.075 392.923 226.361 447.515 270.413C450.503 272.825 453.468 275.297 456.33 277.766C479.464 297.717 498.61 319.468 514.865 344.259C517.657 348.509 520.412 352.886 523.074 357.119C535.843 377.415 549.044 398.401 572.762 416.222C574.092 417.221 575.462 418.212 576.843 419.169C640.028 462.979 752.003 458.275 834.944 434.182C922.054 408.654 986.789 366.227 1049.39 325.197L1050.04 324.776C1056.1 320.798 1062.37 316.688 1068.61 312.629C1134.46 269.806 1206.84 225.798 1303.48 199.516C1330.61 192.153 1359.19 186.746 1388.43 183.445C1415.63 180.376 1444.3 179.028 1473.65 179.439C1524.83 180.156 1579.66 186.101 1641.27 197.613C1706.03 209.669 1754.76 220.75 1799.28 233.545C1862.7 251.812 1924.15 274.895 1978.35 295.261C2099.05 340.85 2217.74 392.206 2331.13 447.9L2330.88 448.037C2217.5 392.349 2098.82 340.999 1978.14 295.414C1923.94 275.051 1862.5 251.972 1799.09 233.711C1754.59 220.919 1705.88 209.842 1641.15 197.79C1507.59 172.837 1400.35 173.438 1303.65 199.682C1207.07 225.947 1134.72 269.936 1068.9 312.743C1062.66 316.802 1056.39 320.915 1050.33 324.89L1049.68 325.311C1018.48 345.758 986.224 366.9 951.388 385.785C912.239 407.007 874.208 422.891 835.121 434.344C794.229 446.222 749.685 452.647 708.678 452.647Z" fill="white"/>
<path d="M2326.97 446.239C2215.06 390.193 2098.21 338.183 1979.68 291.654C1974.66 289.698 1969.63 287.732 1964.58 285.761C1913.24 265.699 1860.15 244.956 1803.38 228.795C1748.3 213.161 1692.48 203.602 1645.14 196.313C1514.47 176.068 1408.64 179.125 1312.09 205.928C1212.98 233.524 1136.18 279.341 1074.47 316.158C1070.77 318.367 1067.07 320.581 1063.37 322.796C1060.63 324.432 1057.9 326.068 1055.16 327.702C1020.03 348.686 988.067 367.447 952.754 384.566C912.412 404.122 873.528 418.445 833.873 428.353C796.71 437.64 757.01 442.553 720.084 442.555C713.356 442.555 706.728 442.393 700.214 442.063C676.433 440.86 654.417 437.48 634.78 432.016C613.352 426.054 594.715 417.585 579.379 406.843C578.009 405.88 576.643 404.885 575.321 403.884C551.854 386.135 538.129 365.43 524.857 345.407C521.999 341.094 519.041 336.633 516.05 332.303C499.027 307.603 479.397 286.039 456.045 266.378C453.139 263.932 450.129 261.482 447.101 259.093C391.759 215.453 315.41 178.673 226.31 152.728C122.322 122.518 11.9522 108.625 -84.4702 113.605C-150.388 117.076 -217.793 137.26 -248.391 162.684C-269.236 180.006 -272.932 199.283 -259.088 218.433L-259.435 218.5C-266.684 208.473 -269.21 198.439 -266.942 188.675C-264.856 179.685 -258.719 170.907 -248.704 162.583C-232.996 149.529 -208.119 137.86 -176.761 128.842C-147.759 120.501 -114.997 115.021 -84.5071 113.416C-33.9585 110.804 20.1683 113.319 76.3704 120.888C127.211 127.736 177.723 138.392 226.495 152.56C315.65 178.52 392.04 215.321 447.415 258.988C450.447 261.379 453.456 263.831 456.362 266.277C479.729 285.949 499.367 307.525 516.401 332.236C519.392 336.568 522.35 341.027 525.208 345.342C538.472 365.353 552.19 386.046 575.628 403.773C576.949 404.772 578.312 405.766 579.678 406.727C645.64 452.931 757.753 447.16 833.714 428.18C924.343 405.533 993.694 364.118 1054.89 327.576C1057.62 325.94 1060.35 324.304 1063.09 322.671C1066.79 320.455 1070.49 318.241 1074.19 316.032C1109.42 295.017 1144.2 274.596 1182.44 255.778C1226.42 234.136 1268.77 217.775 1311.92 205.76C1338.77 198.307 1366.95 192.62 1395.68 188.858C1422.53 185.34 1450.77 183.388 1479.6 183.052C1530.45 182.461 1584.64 186.74 1645.25 196.13C1692.61 203.422 1748.45 212.986 1803.56 228.63C1860.36 244.796 1913.46 265.545 1964.81 285.61C1969.85 287.581 1974.89 289.547 1979.91 291.503C2098.45 338.036 2215.31 390.052 2327.23 446.104L2326.97 446.239Z" fill="white"/>
<path d="M2323.06 444.443C2210.51 386.966 2095.5 334.295 1981.22 287.894C1974.38 285.118 1967.39 282.256 1960.62 279.49C1912.17 259.676 1862.07 239.188 1807.66 223.88C1753.32 208.648 1697.03 200.648 1649.14 194.833C1521.64 179.205 1417.23 184.715 1320.53 212.173C1228.31 238.46 1156.05 277.987 1086.18 316.213L1078.5 320.409C1072.44 323.725 1066.18 327.151 1060 330.512C990.054 368.518 920.034 404.139 832.625 422.359C811.415 426.78 789.635 429.844 767.886 431.47C744.53 433.215 721.842 433.24 700.451 431.543C677.216 429.699 655.699 425.827 636.498 420.033C615.601 413.727 597.337 405.104 582.219 394.404C580.857 393.435 579.501 392.438 578.191 391.439C555.012 373.796 540.791 353.395 527.04 333.666C523.971 329.263 520.796 324.71 517.591 320.289C499.777 295.665 479.66 274.275 456.086 254.896C453.139 252.475 450.085 250.044 447.009 247.674C390.889 204.421 313.937 168.125 224.472 142.708C119.748 113.046 9.0687 99.8062 -87.1876 105.433C-152.503 109.332 -219.602 129.656 -250.355 154.859C-271.547 172.224 -275.974 191.576 -263.161 210.824L-263.511 210.886C-270.217 200.816 -272.289 190.743 -269.671 180.951C-267.256 171.923 -260.864 163.111 -250.672 154.76C-234.794 141.749 -210.005 130.093 -178.979 121.048C-150.265 112.676 -117.681 107.065 -87.2319 105.246C-36.7423 102.294 17.4399 104.47 73.8193 111.711C124.785 118.258 175.53 128.63 224.645 142.543C314.163 167.973 391.158 204.292 447.312 247.569C450.388 249.941 453.446 252.374 456.392 254.795C479.981 274.184 500.11 295.585 517.93 320.222C521.136 324.644 524.311 329.198 527.38 333.601C541.124 353.319 555.337 373.71 578.49 391.333C579.797 392.328 581.152 393.323 582.511 394.292C646.885 439.853 753.846 438.574 832.481 422.183C919.82 403.979 989.81 368.371 1059.73 330.382C1065.9 327.021 1072.17 323.595 1078.23 320.279L1085.9 316.083C1120.2 297.32 1155.67 277.917 1194.19 259.867C1237.81 239.424 1279.08 223.769 1320.35 212.006C1346.92 204.459 1374.7 198.492 1402.91 194.27C1429.44 190.301 1457.23 187.742 1485.53 186.665C1536.15 184.738 1589.69 187.35 1649.22 194.646C1697.14 200.465 1753.45 208.467 1807.83 223.712C1862.27 239.026 1912.38 259.52 1960.85 279.339C1967.61 282.105 1974.61 284.965 1981.44 287.743C2095.74 334.148 2210.75 386.823 2323.31 444.305L2323.06 444.443Z" fill="white"/>
<path d="M2319.14 442.647C2207.56 384.532 2094.38 331.201 1982.76 284.136C1974.37 280.599 1965.77 276.922 1957.45 273.366C1911.62 253.766 1864.22 233.499 1811.93 218.969C1757.85 203.998 1701.31 197.621 1653.13 193.357C1529.17 182.221 1426.17 190.187 1328.97 218.423C1244.15 243.169 1174.51 278.239 1107.16 312.154C1100.08 315.723 1092.75 319.412 1085.6 322.987C1077.22 327.185 1070.81 330.375 1064.83 333.326C1032.81 349.124 994.692 367.315 954.685 382.446C912.29 398.479 871.955 409.575 831.373 416.37C810.033 419.943 788.346 422.197 766.911 423.066C743.894 424 721.609 423.314 700.679 421.024C678.003 418.544 656.988 414.179 638.211 408.054C617.849 401.411 599.966 392.633 585.055 381.967C583.711 381.001 582.363 380.002 581.056 378.999C558.184 361.473 543.487 341.387 529.27 321.963C525.973 317.458 522.564 312.8 519.126 308.276C500.512 283.721 479.903 262.506 456.119 243.415C453.128 241.015 450.03 238.607 446.909 236.256C390.009 193.39 312.453 157.578 222.625 132.689C117.174 103.572 6.18439 90.9903 -89.902 97.2592C-144.575 100.905 -215.984 117.698 -252.268 146.995C-273.84 164.413 -279.017 183.853 -267.234 203.211L-267.585 203.268C-273.748 193.146 -275.358 183.029 -272.374 173.199C-269.62 164.125 -262.962 155.275 -252.578 146.892C-236.53 133.935 -211.833 122.297 -181.151 113.233C-152.725 104.836 -120.337 99.0972 -89.9463 97.0704C-39.5158 93.7797 14.7255 95.6157 71.2747 102.529C122.362 108.775 173.343 118.865 222.799 132.522C312.678 157.424 390.279 193.256 447.212 236.147C450.332 238.498 453.434 240.91 456.425 243.312C480.221 262.412 500.84 283.639 519.466 308.205C522.908 312.731 526.316 317.389 529.614 321.894C543.819 341.309 558.512 361.384 581.359 378.89C582.666 379.891 584.01 380.888 585.354 381.853C638.909 420.164 730.837 432.999 831.259 416.185C922.201 400.959 996.387 366.833 1064.58 333.185C1070.56 330.234 1076.96 327.044 1085.35 322.846C1092.49 319.271 1099.82 315.582 1106.9 312.013C1140.06 295.316 1174.34 278.052 1210.91 261.886C1252.26 243.604 1290.82 229.331 1328.79 218.254C1355.11 210.608 1382.49 204.36 1410.16 199.685C1436.38 195.256 1463.73 192.093 1491.47 190.28C1541.97 186.982 1594.87 187.925 1653.19 193.165C1701.4 197.432 1757.98 203.811 1812.11 218.795C1864.42 233.335 1911.83 253.608 1957.69 273.213C1966 276.769 1974.6 280.447 1982.99 283.984C2094.62 331.054 2207.81 384.389 2319.4 442.508L2319.14 442.647Z" fill="white"/>
<path d="M2315.22 440.851C2204.61 382.093 2093.27 328.101 1984.29 280.377C1975.02 276.317 1965.5 272.056 1956.29 267.936C1912.42 248.309 1867.07 228.016 1816.21 214.054C1762.09 199.262 1705.42 194.543 1657.12 191.878C1538.78 185.173 1434.2 195.899 1337.41 224.67C1260.34 247.682 1194.27 278.468 1130.38 308.241C1117.48 314.255 1104.14 320.474 1091.16 326.402C1083.23 330.03 1076.2 333.216 1069.66 336.141C1039.27 349.727 998.837 367.148 955.633 381.384C912.222 395.687 871.164 405.173 830.113 410.38C785.339 416.059 740.655 416.101 700.892 410.504C678.784 407.39 658.268 402.536 639.912 396.074C620.093 389.098 602.59 380.168 587.882 369.535C586.549 368.566 585.213 367.565 583.913 366.562C561.365 349.17 546.211 329.414 531.558 310.31C528.013 305.688 524.35 300.911 520.654 296.268C501.223 271.778 480.124 250.735 456.147 231.939C453.112 229.56 449.969 227.173 446.805 224.843C389.126 182.364 310.967 147.035 220.778 122.678C114.599 94.1078 3.29938 82.182 -92.6208 89.0934C-157.626 93.879 -222.532 113.975 -254.126 139.096C-276.112 156.577 -282.054 176.118 -271.308 195.605L-271.663 195.657C-277.279 185.474 -278.424 175.304 -275.067 165.432C-271.965 156.307 -265.023 147.41 -254.436 138.991C-238.218 126.095 -213.618 114.484 -183.294 105.412C-155.167 96.9982 -122.982 91.1335 -92.6725 88.9028C-42.3011 85.2726 11.9993 86.7712 68.722 93.3547C119.935 99.2994 171.152 109.107 220.948 122.507C311.189 146.879 389.392 182.227 447.108 224.733C450.272 227.062 453.415 229.451 456.454 231.833C480.441 250.639 501.552 271.692 520.994 296.194C524.69 300.836 528.353 305.616 531.898 310.238C546.543 329.332 561.69 349.079 584.216 366.454C585.515 367.456 586.849 368.454 588.182 369.422C640.817 407.485 731.224 422.727 830.024 410.195C920.095 398.769 998.313 367.781 1069.42 335.998C1075.95 333.073 1082.99 329.889 1090.92 326.261C1103.89 320.333 1117.23 314.116 1130.13 308.102C1194.04 278.323 1260.11 247.53 1337.22 224.508C1363.31 216.753 1390.28 210.227 1417.4 205.106C1443.33 200.21 1470.24 196.441 1497.39 193.903C1547.88 189.184 1600.14 188.461 1657.15 191.691C1705.48 194.359 1762.2 199.079 1816.38 213.888C1867.27 227.859 1912.65 248.161 1956.53 267.795C1965.74 271.915 1975.26 276.174 1984.53 280.234C2093.52 327.961 2204.87 381.958 2315.49 440.719L2315.22 440.851Z" fill="white"/>
<path d="M2311.31 439.055C2201.68 379.649 2092.18 324.998 1985.83 276.619C1976.06 272.172 1966.01 267.465 1956.29 262.912C1914.02 243.12 1870.32 222.652 1820.49 209.14C1766.14 194.475 1709.42 191.438 1661.11 190.4C1547.24 187.777 1444.12 201.03 1345.85 230.917C1276.93 251.978 1215.5 278.632 1156.08 304.407C1135.65 313.271 1116.36 321.643 1096.73 329.816C1088.75 333.143 1081.48 336.133 1074.5 338.953C1029.46 357.132 991.999 370.276 956.587 380.316C912.16 392.913 870.382 400.788 828.862 404.387C812.754 405.783 796.706 406.479 780.95 406.479C753.018 406.479 725.992 404.298 701.111 399.977C656.083 392.158 618.942 377.731 590.719 357.096C589.39 356.118 588.064 355.117 586.779 354.118C564.575 336.877 548.996 317.471 533.93 298.703C530.112 293.948 526.168 289.032 522.191 284.253C501.929 259.82 480.335 238.952 456.185 220.456C453.105 218.097 449.918 215.731 446.71 213.422C388.251 171.331 309.487 136.486 218.936 112.657C112.03 84.6357 0.42337 73.3639 -95.3307 80.9179C-160.606 86.1744 -223.639 105.889 -255.909 131.143C-278.342 148.697 -285.07 168.354 -275.373 187.99L-275.731 188.038C-280.794 177.784 -281.466 167.554 -277.725 157.63C-274.262 148.444 -267.028 139.498 -256.216 131.038C-239.828 118.213 -215.334 106.64 -185.38 97.5682C-157.556 89.141 -125.596 83.1619 -95.3861 80.7291C-45.0737 76.7596 9.28574 77.9188 66.1784 84.1743C117.517 89.8198 168.967 99.3451 219.106 112.485C309.709 136.329 388.517 171.193 447.012 213.31C450.221 215.621 453.408 217.987 456.491 220.347C480.656 238.853 502.262 259.732 522.531 284.174C526.508 288.954 530.455 293.871 534.27 298.626C549.328 317.385 564.9 336.783 587.086 354.009C588.371 355.006 589.693 356.007 591.022 356.983C643.723 395.52 730.39 412.729 828.799 404.197C922.478 396.074 1005.45 366.581 1074.27 338.8C1081.24 335.98 1088.51 332.993 1096.5 329.666C1116.12 321.492 1135.42 313.122 1155.85 304.258C1215.27 278.477 1276.72 251.819 1345.66 230.752C1371.55 222.877 1398.12 216.071 1424.64 210.519C1450.33 205.142 1476.8 200.767 1503.33 197.516C1553.92 191.317 1605.54 188.927 1661.12 190.208C1709.48 191.245 1766.24 194.286 1820.66 208.969C1870.53 222.49 1914.25 242.967 1956.53 262.767C1966.26 267.32 1976.31 272.027 1986.07 276.472C2092.42 324.855 2201.94 379.512 2311.57 438.921L2311.31 439.055Z" fill="white"/>
<path d="M2307.39 437.259C2197.22 376.355 2092.55 322.579 1987.37 272.859C1977.34 268.115 1967.46 263.271 1957 258.142C1916.11 238.092 1873.83 217.362 1824.76 204.227C1769.73 189.567 1710.53 188.347 1665.1 188.923C1556.42 190.12 1454.75 205.901 1354.28 237.167C1294.01 256.018 1238.36 278.655 1184.54 300.548C1156.25 312.055 1129.54 322.92 1102.29 333.233C1094.2 336.297 1086.69 339.088 1079.33 341.767C1033.68 358.347 994.983 370.255 957.532 379.247C912.076 390.16 869.577 396.423 827.606 398.395C806.041 399.407 784.624 399.217 763.949 397.829C742.059 396.359 720.988 393.539 701.325 389.449C657.741 380.383 621.483 365.315 593.555 344.661C592.237 343.681 590.922 342.678 589.645 341.679C567.814 324.615 551.843 305.58 536.397 287.172C532.276 282.26 528.014 277.181 523.727 272.243C502.616 247.863 480.534 227.169 456.218 208.978C453.091 206.641 449.86 204.296 446.614 202.008C387.376 160.303 308.01 125.942 217.097 102.642C133.185 81.2249 46.6519 70.0504 -32.6994 70.0504C-55.1322 70.0504 -76.9742 70.9427 -98.0408 72.7482C-162.529 78.3841 -225.168 98.1689 -257.626 123.153C-280.535 140.789 -288.079 160.579 -279.442 180.383L-279.804 180.425C-284.313 170.091 -284.501 159.79 -280.365 149.809C-276.532 140.556 -268.985 131.551 -257.936 123.046C-241.378 110.301 -216.999 98.7752 -187.429 89.7131C-159.516 81.1582 -128.627 75.2268 -98.1073 72.5614C-47.854 68.2524 6.56454 69.0742 63.6307 74.9999C115.091 80.3422 166.781 89.5835 217.26 102.468C308.224 125.782 387.638 160.162 446.913 201.892C450.162 204.179 453.397 206.526 456.525 208.866C480.852 227.066 502.945 247.77 524.067 272.161C528.354 277.099 532.619 282.178 536.74 287.092C552.179 305.492 568.142 324.52 589.955 341.571C591.233 342.568 592.547 343.571 593.862 344.549C646.087 383.171 731.269 402.725 827.577 398.202C925.029 393.625 1013.2 365.552 1079.12 341.607C1086.48 338.928 1093.99 336.137 1102.08 333.075C1129.32 322.766 1156.03 311.898 1184.32 300.394C1238.14 278.499 1293.8 255.856 1354.1 237C1405.82 220.902 1456.58 209.171 1509.27 201.133C1560.09 193.38 1611.06 189.323 1665.1 188.728C1695.93 188.338 1721.08 189.016 1744.25 190.862C1774.17 193.245 1800.56 197.56 1824.94 204.054C1874.05 217.2 1916.35 237.941 1957.26 258.001C1967.72 263.129 1977.6 267.972 1987.63 272.716C2092.8 322.438 2197.49 376.217 2307.67 437.125L2307.39 437.259Z" fill="white"/>
<path d="M2303.48 435.463C2194.31 373.891 2091.42 319.475 1988.91 269.099C1978.77 264.115 1968.77 258.981 1958.18 253.545C1918.52 233.179 1877.5 212.117 1829.04 199.312C1773.56 184.721 1714.41 185.304 1669.09 187.441C1566.53 192.111 1466.31 210.42 1362.72 243.411C1311.68 259.745 1263.09 278.437 1216.09 296.516C1178.94 310.806 1143.85 324.304 1107.86 336.642C1099.72 339.433 1091.75 342.103 1084.16 344.574C1038.42 359.453 997.313 370.44 958.478 378.166C911.976 387.417 868.758 392.073 826.351 392.397C804.775 392.561 783.443 391.554 762.96 389.401C741.487 387.144 720.823 383.615 701.54 378.909C659.451 368.639 624.072 352.93 596.388 332.219C595.088 331.241 593.781 330.236 592.507 329.231C571.086 312.375 554.768 293.742 538.986 275.722C534.521 270.624 529.902 265.351 525.26 260.224C503.285 235.89 480.712 215.371 456.252 197.491C453.08 195.174 449.805 192.85 446.514 190.583C386.498 149.266 306.526 115.389 215.251 92.6167C106.894 65.6956 -5.33643 55.7355 -100.758 64.5707C-164.412 70.567 -226.633 90.4032 -259.272 115.103C-282.699 132.833 -291.081 152.772 -283.518 172.768L-283.88 172.804C-287.824 162.381 -287.521 152 -282.976 141.95C-278.755 132.621 -270.886 123.551 -259.579 114.994C-242.859 102.34 -218.602 90.8722 -189.43 81.8292C-161.838 73.2762 -131.2 67.2438 -100.825 64.382C-50.6268 59.7356 3.8472 60.216 61.0832 65.8138C112.669 70.8587 164.592 79.8178 215.41 92.4433C306.74 115.227 386.756 149.124 446.806 190.467C450.1 192.734 453.379 195.06 456.551 197.379C481.026 215.268 503.606 235.796 525.592 260.14C530.238 265.267 534.854 270.54 539.322 275.641C555.097 293.652 571.407 312.278 592.813 329.122C594.087 330.125 595.395 331.13 596.691 332.106C649.466 371.588 731.026 392.934 826.344 392.202C903.686 391.611 985.545 376.423 1083.96 344.408C1091.54 341.937 1099.51 339.269 1107.65 336.478C1143.63 324.142 1178.72 310.648 1215.87 296.358C1262.87 278.277 1311.47 259.581 1362.53 243.244C1414.76 226.609 1464.7 214.017 1515.2 204.746C1566.37 195.354 1616.69 189.628 1669.06 187.245C1714.43 185.104 1773.64 184.522 1829.21 199.136C1877.73 211.956 1918.76 233.028 1958.45 253.404C1969.03 258.84 1979.03 263.972 1989.17 268.954C2091.68 319.332 2194.58 373.752 2303.75 435.328L2303.48 435.463Z" fill="white"/>
<path d="M2299.56 433.667C2191.42 371.426 2090.31 316.365 1990.45 265.341C1980.32 260.161 1970.31 254.778 1959.71 249.08C1921.17 228.349 1881.31 206.913 1833.32 194.398C1777.31 179.861 1718.27 182.253 1673.09 185.962C1576.59 193.731 1480.65 213.972 1371.16 249.659C1330.1 263.105 1289.97 277.854 1251.17 292.117C1204.03 309.441 1159.52 325.805 1113.42 340.057C1105.12 342.627 1096.9 345.094 1088.99 347.386C1042.44 360.873 1000.06 370.589 959.426 377.087C936.668 380.726 914.202 383.363 892.651 384.925C869.665 386.589 846.936 387.087 825.098 386.404C780.79 385.018 739.292 378.951 701.76 368.373C661.226 356.949 626.729 340.602 599.23 319.782C597.937 318.796 596.641 317.79 595.375 316.79C574.412 300.182 557.802 281.991 541.743 264.401C536.879 259.076 531.854 253.57 526.799 248.212C503.937 223.918 480.873 203.573 456.287 186.011C453.071 183.714 449.748 181.411 446.417 179.167C385.621 138.234 305.048 104.842 213.411 82.6013C104.33 56.2311 -8.20706 46.9269 -103.47 56.4008C-205.472 66.7022 -304.867 111.212 -287.585 165.159L-287.951 165.189C-292.275 151.694 -289.742 138.4 -280.425 125.671C-271.918 114.047 -257.956 103.107 -238.927 93.1581C-221.236 83.9073 -200.011 75.9206 -175.846 69.4191C-152.863 63.236 -127.86 58.6678 -103.544 56.2121C-53.4051 51.2263 1.12796 51.3693 58.5375 56.6391C110.249 61.3847 162.408 70.0616 213.566 82.4297C305.254 104.685 385.876 138.097 446.709 179.052C450.043 181.298 453.367 183.601 456.587 185.901C481.183 203.47 504.259 223.827 527.131 248.13C532.186 253.488 537.212 258.994 542.075 264.321C558.131 281.905 574.733 300.089 595.685 316.688C596.948 317.687 598.24 318.693 599.533 319.677C652.385 359.689 732.501 383.317 825.12 386.215C903.53 388.665 989.783 375.912 1088.81 347.222C1096.71 344.93 1104.93 342.465 1113.23 339.895C1159.32 325.647 1203.83 309.284 1250.95 291.963C1289.76 277.698 1329.89 262.946 1370.96 249.499C1480.5 213.796 1576.47 193.548 1673.03 185.773C1703.39 183.281 1728.52 182.484 1752.14 183.268C1782.32 184.269 1808.93 187.853 1833.48 194.227C1881.53 206.755 1921.41 228.204 1959.97 248.946C1970.57 254.643 1980.58 260.025 1990.71 265.204C2090.57 316.232 2191.68 371.294 2299.83 433.539L2299.56 433.667Z" fill="white"/>
<path d="M2295.65 431.871C2188.53 368.951 2089.2 313.25 1991.99 261.581C1981.94 256.235 1971.99 250.635 1961.47 244.704C1923.97 223.577 1885.2 201.729 1837.6 189.483C1780.37 174.823 1718.58 179.607 1677.08 184.48C1564.44 197.544 1463.49 227.916 1379.61 255.907C1349.46 266.008 1319.38 276.708 1290.3 287.055C1231.95 307.812 1176.84 327.418 1118.99 343.471C1110.48 345.834 1102.02 348.097 1093.83 350.2C1046.37 362.362 1002.72 370.804 960.383 376.005C912.393 381.903 866.461 383.386 823.851 380.412C780.078 377.355 739.075 369.759 701.986 357.834C663.084 345.326 629.47 328.341 602.071 307.347C600.793 306.361 599.504 305.353 598.245 304.35C577.802 288.047 560.986 270.355 544.72 253.245C539.392 247.638 533.878 241.842 528.34 236.2C504.245 211.602 481.362 192.007 456.329 174.532C453.069 172.255 449.705 169.975 446.326 167.75C384.743 127.206 303.564 94.2982 211.566 72.584C101.761 46.7668 -11.0862 38.1165 -106.187 48.2291C-208.554 59.2588 -305.918 103.164 -291.657 157.55L-292.023 157.574C-295.56 144.081 -292.499 130.8 -282.928 118.1C-274.154 106.464 -260.111 95.5127 -241.183 85.5527C-223.532 76.2637 -202.417 68.2179 -178.422 61.6344C-155.576 55.3655 -130.621 50.6658 -106.261 48.0404C-56.1772 42.7152 -1.58875 42.5208 55.9907 47.4608C107.828 51.9069 160.223 60.3017 211.721 72.4105C303.775 94.1362 384.998 127.063 446.61 167.632C449.989 169.859 453.357 172.141 456.621 174.417C481.668 191.901 504.559 211.506 528.664 236.115C534.203 241.756 539.717 247.554 545.045 253.162C561.307 270.266 578.12 287.951 598.548 304.247C599.807 305.25 601.092 306.256 602.37 307.242C655.633 348.051 734.304 373.969 823.895 380.223C904.247 385.832 992.487 375.954 1093.66 350.028C1101.85 347.927 1110.31 345.666 1118.81 343.304C1176.65 327.254 1231.75 307.652 1290.08 286.897C1319.17 276.55 1349.25 265.848 1379.4 255.745C1435.81 236.925 1482.74 223.02 1527.07 211.987C1579.26 198.999 1628.3 189.941 1676.99 184.293C1706.67 180.808 1732.55 179.229 1756.09 179.47C1786.4 179.779 1813.11 182.997 1837.76 189.312C1885.42 201.573 1924.22 223.434 1961.74 244.574C1972.26 250.504 1982.2 256.103 1992.26 261.446C2089.47 313.116 2188.8 368.821 2295.93 431.743L2295.65 431.871Z" fill="white"/>
<path d="M2291.73 430.073C2185.65 366.473 2088.11 310.129 1993.53 257.819C1983.62 252.334 1973.8 246.54 1963.41 240.405C1926.9 218.852 1889.15 196.566 1841.88 184.568C1784.02 169.943 1722.4 176.667 1681.07 182.999C1579.02 198.501 1487.98 228.019 1388.05 262.153C1370.02 268.332 1351.79 274.71 1334.16 280.88C1266.35 304.605 1196.23 329.138 1124.55 346.884C1115.85 349.042 1107.13 351.104 1098.66 353.01C1050.88 363.748 1004.67 371.119 961.332 374.919C912.234 379.224 865.559 379.054 822.592 374.417C779.432 369.76 738.927 360.633 702.2 347.29C665.034 333.788 632.295 316.165 604.895 294.912C603.629 293.925 602.351 292.914 601.099 291.911C581.274 275.989 564.35 258.874 547.984 242.323C542.087 236.359 535.991 230.193 529.865 224.193C504.828 199.619 481.469 180.192 456.351 163.056C453.054 160.806 449.642 158.545 446.215 156.337C383.865 116.175 302.087 83.751 209.719 62.5668C99.1946 37.3025 -13.9592 29.3082 -108.905 40.0576C-208.023 51.4018 -307.185 93.7664 -295.734 149.939L-296.1 149.958C-298.851 136.465 -295.261 123.199 -285.435 110.527C-276.399 98.878 -262.271 87.9169 -243.446 77.9454C-208.713 59.5506 -159.704 45.6725 -108.986 39.8688C-58.9615 34.2062 -4.314 33.6724 53.439 38.2825C105.402 42.4313 158.03 50.5419 209.867 62.3914C302.287 83.5871 384.112 116.032 446.503 156.213C449.933 158.423 453.345 160.684 456.647 162.936C481.775 180.082 505.146 199.516 530.189 224.099C536.316 230.101 542.416 236.267 548.313 242.231C564.675 258.778 581.595 275.89 601.41 291.805C602.658 292.807 603.935 293.816 605.202 294.804C660.019 337.325 735.216 364.789 822.662 374.229C903.634 382.968 996.438 375.771 1098.5 352.835C1106.97 350.928 1115.68 348.869 1124.38 346.713C1196.04 328.972 1266.15 304.443 1333.94 280.722C1351.57 274.552 1369.81 268.174 1387.83 261.995C1431.58 247.053 1482.48 229.915 1533 215.606C1585.85 200.639 1634.24 189.914 1680.96 182.818C1710.37 178.312 1736.23 175.975 1760.03 175.674C1790.04 175.292 1817.62 178.229 1842.03 184.398C1863.21 189.773 1884.52 197.794 1907.19 208.921C1927.21 218.746 1945.75 229.693 1963.68 240.279C1974.07 246.412 1983.88 252.206 1993.8 257.69C2088.38 310.001 2185.92 366.347 2292.01 429.949L2291.73 430.073Z" fill="white"/>
<path d="M2287.82 428.277C2182.77 363.99 2087.02 307.004 1995.07 254.061C1985.33 248.456 1975.69 242.486 1965.48 236.168C1929.92 214.168 1893.16 191.418 1846.15 179.656C1802.23 168.699 1749.53 169.309 1685.06 181.521C1594.92 198.499 1514.34 226.898 1429.02 256.967C1418.4 260.711 1407.41 264.582 1396.48 268.405C1392.2 269.905 1387.92 271.409 1383.64 272.912C1302.35 301.452 1218.3 330.964 1130.12 350.301C1121.2 352.257 1112.25 354.116 1103.49 355.824C1054.66 365.344 1007.15 371.403 962.295 373.832C912.064 376.551 864.639 374.732 821.347 368.425C778.859 362.234 738.853 351.576 702.44 336.747C667.146 322.373 635.285 304.115 607.742 282.477C606.486 281.488 605.22 280.475 603.975 279.47C584.903 264.048 568.035 247.623 551.717 231.739C545.111 225.306 538.276 218.654 531.411 212.179C505.408 187.622 481.575 168.364 456.399 151.574C453.053 149.343 449.601 147.105 446.13 144.918C382.989 105.145 300.606 73.2034 207.876 52.5492C96.6352 27.8397 -16.8325 20.4993 -111.619 31.8855C-208.917 43.6702 -307.939 86.3818 -299.804 142.329L-300.173 142.344C-302.134 128.849 -298.02 115.598 -287.939 102.96C-278.638 91.297 -264.428 80.3226 -245.703 70.3435C-211.118 51.9105 -162.279 37.8265 -111.704 31.7006C-61.7351 25.6986 -7.03223 24.8254 50.8907 29.1076C102.979 32.9551 155.847 40.7836 208.024 52.3738C300.805 73.0413 383.24 105 446.406 144.794C449.878 146.981 453.338 149.223 456.683 151.454C481.871 168.253 505.718 187.517 531.729 212.084C538.597 218.559 545.429 225.213 552.038 231.645C568.349 247.525 585.217 263.947 604.282 279.364C605.526 280.368 606.789 281.379 608.045 282.368C664.051 326.365 737.841 356.057 821.443 368.236C903.97 380.259 998.819 376.02 1103.36 355.641C1112.11 353.933 1121.06 352.076 1129.97 350.121C1218.12 330.792 1302.16 301.286 1383.43 272.75C1387.71 271.245 1391.99 269.743 1396.27 268.242C1407.2 264.42 1418.19 260.549 1428.81 256.807C1514.14 226.732 1594.75 198.326 1684.93 181.34C1714.06 175.822 1739.92 172.728 1763.98 171.875C1794.1 170.81 1821.8 173.37 1846.31 179.483C1867.36 184.751 1888.41 192.808 1910.66 204.116C1930.29 214.093 1948.32 225.253 1965.76 236.044C1975.97 242.36 1985.61 248.328 1995.35 253.932C2087.3 306.876 2183.06 363.864 2288.1 428.153L2287.82 428.277Z" fill="white"/>
<path d="M2283.9 426.481C2188.03 366.576 2091.37 307.299 1996.61 250.302C1986.96 244.532 1977.4 238.334 1967.28 231.773C1934.36 210.431 1897.05 186.242 1850.43 174.743C1805.99 163.805 1753.21 165.538 1689.05 180.04C1612.77 197.226 1545.26 222.496 1473.79 249.249C1451.41 257.627 1428.26 266.292 1404.92 274.651C1364.17 289.273 1320.09 304.745 1273.88 318.836C1224.4 333.929 1179.19 345.336 1135.67 353.714C1126.53 355.473 1117.33 357.13 1108.31 358.635C1058.45 366.953 1009.65 371.687 963.274 372.705C911.935 373.83 863.761 370.375 820.084 362.429C739.429 347.573 668.937 316.489 610.567 270.041C609.323 269.049 608.067 268.035 606.83 267.03C588.725 252.288 572.153 236.736 556.126 221.695C548.582 214.616 540.783 207.295 532.937 200.17C505.943 175.618 481.631 156.53 456.425 140.097C453.031 137.885 449.534 135.668 446.023 133.504C382.114 94.1133 299.125 62.6583 206.034 42.5322C94.0727 18.3757 -19.7015 11.693 -114.333 23.7141C-212.221 36.2195 -308.762 78.3648 -303.877 134.72L-304.246 134.728C-305.416 121.229 -300.771 107.993 -290.443 95.3869C-280.871 83.709 -266.581 72.7232 -247.963 62.7365C-230.422 53.3274 -209.633 45.1004 -186.173 38.2824C-163.397 31.6646 -139.258 26.6999 -114.425 23.5273C-64.5118 17.1878 -9.74979 15.9752 48.343 19.9276C100.557 23.4796 153.657 31.024 206.174 42.3549C299.321 62.4924 382.358 93.9665 446.303 133.376C449.815 135.542 453.319 137.761 456.713 139.973C481.93 156.415 506.253 175.512 533.258 200.071C541.105 207.197 548.904 214.519 556.448 221.6C572.474 236.639 589.043 252.189 607.14 266.925C608.374 267.932 609.633 268.944 610.874 269.936C669.199 316.348 739.629 347.407 820.206 362.248C903.206 377.348 1002.79 376.036 1108.2 358.452C1117.21 356.947 1126.41 355.292 1135.54 353.534C1232.84 334.806 1321.86 304.218 1404.7 274.493C1428.05 266.134 1451.19 257.471 1473.57 249.093C1545.06 222.334 1612.58 197.058 1688.9 179.864C1753.15 165.34 1806.04 163.607 1850.58 174.57C1871.46 179.72 1892.19 187.792 1913.96 199.245C1933.16 209.344 1950.65 220.687 1967.57 231.653C1977.69 238.214 1987.25 244.41 1996.89 250.176C2091.65 307.176 2188.31 366.452 2284.19 426.359L2283.9 426.481Z" fill="white"/>
<path d="M2279.99 424.685C2185.58 364.448 2090.76 304.512 1998.15 246.542C1988.8 240.71 1979.53 234.403 1969.71 227.726C1937.6 205.886 1901.2 181.131 1854.7 169.826C1809.74 158.907 1756.85 161.763 1693.04 178.555C1626.17 196.122 1564.74 220.927 1505.34 244.918C1475.55 256.946 1444.74 269.385 1413.36 280.895C1363.82 299.08 1322.13 312.953 1282.17 324.554C1232.9 338.86 1186.8 349.514 1141.24 357.125C1131.88 358.688 1122.43 360.141 1113.14 361.443C1064.75 368.225 1017.24 371.657 971.781 371.659C969.255 371.659 966.745 371.647 964.234 371.626C911.68 371.184 862.76 366.07 818.832 356.431C797.629 351.752 776.865 345.813 757.12 338.778C738.561 332.165 720.323 324.377 702.912 315.63C671.588 299.893 642.305 280.91 613.399 257.602C612.158 256.599 610.921 255.595 609.691 254.586C592.919 240.834 577.052 226.458 561.709 212.555C552.85 204.53 543.693 196.231 534.468 188.153C506.068 163.264 482.011 144.9 456.454 128.611C453.016 126.421 449.475 124.224 445.919 122.081C381.235 83.082 297.644 52.1112 204.191 32.5133C91.5132 8.91154 -22.5711 2.88479 -117.048 15.5408C-213.101 28.4446 -309.516 70.9102 -307.946 127.107L-308.316 127.109C-309.047 100.933 -288.955 76.0428 -250.215 55.1293C-232.705 45.6764 -212.026 37.3904 -188.748 30.4961C-166.097 23.7887 -142.006 18.6943 -117.14 15.3539C-67.2854 8.67512 -12.4644 7.12506 45.7982 10.7476C98.1378 14.0022 151.474 21.2644 204.327 32.3341C297.84 51.9453 381.478 82.9351 446.203 121.957C449.759 124.102 453.308 126.301 456.746 128.491C482.313 144.789 506.382 163.159 534.79 188.057C544.014 196.137 553.175 204.437 562.03 212.462C577.373 226.363 593.237 240.737 610.005 254.485C611.235 255.494 612.468 256.498 613.709 257.499C675.132 307.029 742.276 339.332 818.976 356.255C925.21 379.569 1037.53 371.846 1113.05 361.26C1122.33 359.958 1131.77 358.507 1141.12 356.944C1245.92 339.437 1341.54 307.023 1413.14 280.741C1444.53 269.234 1475.33 256.796 1505.11 244.769C1564.53 220.774 1625.97 195.962 1692.87 178.387C1721.43 170.873 1747.27 166.259 1771.88 164.284C1802.22 161.847 1830.14 163.655 1854.86 169.657C1875.68 174.719 1896.21 182.856 1917.63 194.532C1936.49 204.82 1953.53 216.406 1970.01 227.613C1979.82 234.288 1989.09 240.594 1998.43 246.422C2091.04 304.392 2185.86 364.328 2280.27 424.565L2279.99 424.685Z" fill="white"/>
<path d="M2276.07 422.889L1999.69 242.784C1990.66 236.902 1981.7 230.502 1972.21 223.728C1940.89 201.371 1905.39 176.032 1858.98 164.915C1814.1 154.165 1759.61 158.257 1697.03 177.077C1636.86 195.169 1581.98 219.228 1528.91 242.496C1494.32 257.663 1458.55 273.345 1421.8 287.147C1311.33 328.63 1214.79 353.132 1117.98 364.257C1077.82 368.871 1038.2 371.193 999.779 371.193C988.132 371.193 976.604 370.98 965.197 370.553C911.403 368.539 861.737 361.771 817.584 350.438C776.662 339.933 739.226 325.103 703.149 305.099C674.339 289.126 646.721 270.083 616.238 245.169C600.149 232.021 584.57 218.36 569.504 205.15C535.406 175.254 500.149 144.341 456.498 117.134C389.543 75.4039 301.658 42.679 202.344 22.4958C88.9541 -0.549242 -25.4405 -5.92203 -119.762 7.36886C-211.081 20.2365 -310.195 60.8127 -312.019 119.498L-312.389 119.494C-311.573 93.263 -290.853 68.3761 -252.472 47.5237C-217.768 28.6694 -170.672 14.3432 -119.858 7.18392C-70.0587 0.16764 -15.1786 -1.7218 43.2502 1.57089C95.7153 4.52612 149.288 11.5081 202.481 22.3185C251.623 32.3052 298.294 45.4512 341.203 61.3923C384.469 77.4668 423.357 96.1781 456.779 117.008C500.448 144.224 535.716 175.146 569.822 205.049C584.888 218.258 600.467 231.916 616.552 245.062C661.026 281.414 724.09 326.22 817.75 350.263C925.162 377.834 1040.26 372.987 1117.9 364.066C1214.66 352.949 1311.16 328.457 1421.58 286.988C1458.32 273.192 1494.08 257.511 1528.67 242.347C1581.75 219.075 1636.65 195.01 1696.84 176.909C1759.54 158.057 1814.14 153.961 1859.14 164.739C1879.92 169.717 1900.26 177.925 1921.33 189.836C1939.88 200.32 1956.47 212.162 1972.51 223.613C1982 230.387 1990.96 236.784 1999.98 242.664L2276.36 422.769L2276.07 422.889Z" fill="white"/>
<path d="M2273.85 409.043C2203.47 358.896 2143.08 318.203 2083.82 280.984C2055.05 262.904 2025.66 245.108 1996.48 228.09C1987.66 222.942 1978.91 217.466 1969.66 211.668C1946.39 197.096 1922.34 182.028 1894.65 170.846C1879.79 164.831 1865.48 160.524 1850.91 157.679C1806.18 148.861 1753.7 154.691 1694.93 175.01C1664.51 185.51 1636.82 197.458 1613.74 207.762C1589.31 218.669 1565.2 230.698 1541.89 242.33C1508.39 259.051 1473.75 276.34 1436.5 291.188C1413.84 300.251 1390.87 308.348 1368.22 315.257C1322.91 329.08 1274.28 340.47 1223.68 349.111C1192.41 354.39 1160.99 358.381 1130.3 360.97C1103.85 363.193 1077.35 364.476 1051.54 364.783C1012.9 365.245 975.26 363.485 939.655 359.548C901.798 355.361 865.972 348.678 833.174 339.683C803.928 331.662 776.304 321.562 748.723 308.805C697.329 285.053 656.337 257.589 626.368 236.315C611.645 225.815 597.269 215.108 583.367 204.753C543.335 174.932 505.522 146.766 458.204 121.677C419.612 101.349 375.581 83.8061 327.322 69.5333C290.237 58.5646 249.902 49.5941 207.44 42.8695C197.326 41.2699 187.02 39.7789 176.817 38.4424C132.889 32.6978 83.4375 28.9571 29.8387 27.3231C-24.1995 25.6377 -70.9521 27.0963 -113.082 31.7865C-136.899 34.4176 -159.974 38.5454 -181.676 44.0535C-258.291 63.5008 -307.488 96.1475 -313.278 131.385L-313.74 131.364C-312.196 121.97 -307.666 112.718 -300.277 103.86C-293.257 95.4458 -283.615 87.3314 -271.622 79.7412C-248.96 65.4036 -217.927 52.9878 -181.879 43.8381C-160.144 38.3204 -137.032 34.1869 -113.178 31.552C-71.0038 26.8579 -24.2143 25.3975 29.8683 27.0848C83.4966 28.7188 132.974 32.4633 176.932 38.2117C187.146 39.5501 197.455 41.0411 207.577 42.6426C250.072 49.371 290.44 58.3492 327.555 69.3274C375.847 83.6097 419.915 101.168 458.526 121.509C505.873 146.613 543.693 174.787 583.74 204.616C597.639 214.97 612.014 225.676 626.733 236.174C656.688 257.438 697.661 284.889 749.026 308.626C776.577 321.37 804.172 331.46 833.385 339.471C897.574 357.075 970.965 365.511 1051.52 364.545C1077.32 364.238 1103.8 362.955 1130.23 360.734C1160.89 358.144 1192.29 354.158 1223.53 348.882C1274.1 340.247 1322.7 328.865 1367.98 315.05C1390.62 308.146 1413.57 300.052 1436.22 290.998C1473.44 276.157 1508.08 258.872 1541.57 242.157C1564.88 230.522 1588.99 218.49 1613.43 207.578C1636.52 197.27 1664.23 185.317 1694.67 174.81C1720.84 165.763 1746.17 159.513 1769.98 156.232C1799.22 152.201 1826.51 152.613 1851.07 157.456C1865.69 160.31 1880.04 164.629 1894.94 170.657C1922.66 181.857 1946.73 196.934 1970.01 211.516C1979.27 217.312 1988.01 222.787 1996.83 227.931C2026.02 244.952 2055.4 262.75 2084.18 280.834C2143.45 318.056 2203.84 358.753 2274.22 408.904L2273.85 409.043Z" fill="white"/>
<path d="M2271.62 395.194C2206.37 344.198 2145.12 301.524 2084.39 264.737C2054.77 246.767 2024.12 229.493 1993.28 213.396C1985.1 209.125 1977.02 204.686 1968.47 199.988C1942.86 185.92 1916.38 171.372 1886.71 161.307C1871.74 156.203 1857.39 152.65 1842.83 150.442C1787.11 141.984 1730.51 158.007 1692.83 172.938C1666.14 183.485 1641.76 195.411 1617.07 207.722C1595.46 218.498 1575.12 230.09 1553.59 242.361C1521.64 260.576 1488.6 279.412 1451.21 295.227C1429.02 304.663 1405.86 312.821 1382.38 319.475C1338.64 331.872 1290.74 341.498 1235.95 348.907C1205.29 353.052 1173.88 356.005 1142.61 357.681C1116.23 359.079 1089.89 359.578 1064.33 359.161C1026.31 358.547 989.137 355.786 953.85 350.957C916.791 345.883 881.43 338.47 848.754 328.924C820.125 320.562 792.482 310.186 764.244 297.206C712.96 273.665 669.029 247.568 636.489 227.461C624.444 220.017 612.591 212.528 601.125 205.283C555.465 176.432 512.339 149.18 459.911 126.22C420.728 109.061 376.737 94.5518 329.169 83.0969C293.177 74.4296 255.028 67.9357 212.547 63.2436C202.744 62.1625 192.77 61.1882 182.907 60.3474C139.585 56.6734 93.3488 55.2835 37.4089 53.8459C-2.91483 52.7573 -55.7012 52.0404 -106.412 56.2006C-130.429 58.1339 -153.645 61.4914 -175.421 66.1759C-252.087 82.6737 -304.095 111.494 -314.545 143.273L-315.091 143.225C-312.322 134.798 -306.709 126.533 -298.419 118.657C-290.517 111.153 -280.133 103.957 -267.56 97.2649C-243.664 84.5517 -211.878 73.7089 -175.635 65.9109C-153.819 61.2168 -130.559 57.8536 -106.501 55.9165C-55.7419 51.7506 -2.91483 52.4694 37.4347 53.558C93.3931 54.9956 139.644 56.3855 182.995 60.0614C192.866 60.9042 202.847 61.8784 212.662 62.9595C255.183 67.6573 293.369 74.1569 329.401 82.8338C377.018 94.3001 421.046 108.821 460.269 125.997C512.734 148.974 555.879 176.234 601.553 205.096C613.015 212.339 624.869 219.829 636.914 227.27C669.446 247.369 713.359 273.457 764.613 296.987C792.818 309.953 820.431 320.318 849.027 328.67C913.279 347.441 985.729 357.601 1064.35 358.871C1089.89 359.287 1116.2 358.789 1142.56 357.391C1173.8 355.717 1205.18 352.768 1235.81 348.625C1290.56 341.223 1338.41 331.605 1382.12 319.219C1405.57 312.573 1428.7 304.426 1450.86 295C1488.22 279.198 1521.24 260.37 1553.19 242.164C1574.72 229.888 1595.06 218.294 1616.69 207.512C1641.39 195.193 1665.78 183.264 1692.5 172.705C1716.92 163.025 1741.02 156.062 1764.11 152.005C1792.1 147.086 1818.65 146.467 1843 150.162C1857.6 152.379 1872 155.944 1887.02 161.063C1916.74 171.147 1943.24 185.708 1968.88 199.788C1977.43 204.484 1985.51 208.921 1993.68 213.19C2024.53 229.293 2055.19 246.572 2084.82 264.548C2145.56 301.345 2206.82 344.026 2272.09 395.033L2271.62 395.194Z" fill="white"/>
<path d="M2269.39 381.344C2208.32 328.808 2148 285.351 2084.97 248.491C2054.49 230.632 2022.57 213.882 1990.08 198.704C1983.14 195.459 1975.99 192.015 1969.08 188.687C1940.53 174.932 1911.01 160.711 1878.78 151.771C1863.65 147.546 1849.25 144.743 1834.77 143.205C1779.16 137.296 1725.75 154.986 1690.74 170.864C1667.01 181.583 1645.31 193.731 1624.33 205.482L1620.4 207.682C1601.35 218.342 1583.48 230.033 1564.56 242.413C1534.43 262.125 1503.28 282.506 1465.91 299.265C1444.16 309.088 1420.82 317.307 1396.53 323.695C1354.18 334.831 1307.05 342.778 1248.21 348.703C1217.79 351.767 1186.4 353.682 1154.92 354.391C1128.6 354.961 1102.43 354.675 1077.12 353.537C1000.5 350.107 928.903 338.206 864.326 318.165C836.409 309.502 808.748 298.854 779.764 285.606C730.715 263.236 687.09 240.243 646.615 218.609C641.186 215.709 635.817 212.828 630.489 209.97C575.206 180.324 522.992 152.322 461.628 130.77C421.566 116.699 377.62 105.225 331.015 96.6646C296.799 90.3805 259.717 86.1135 217.658 83.6197C208.179 83.0611 198.538 82.6016 189 82.2546C165.005 81.3966 139.555 81.2574 112.61 81.1106C90.9672 80.9924 68.5898 80.8704 44.9753 80.3728C-0.632599 79.3299 -52.3223 78.1497 -99.7507 80.6206C-124.222 81.8961 -147.578 84.4815 -169.172 88.3061C-245.81 101.881 -300.631 126.878 -315.819 155.174L-316.443 155.085C-312.44 147.624 -305.749 140.347 -296.558 133.454C-287.769 126.863 -276.647 120.583 -263.501 114.789C-238.358 103.708 -205.811 94.4416 -169.387 87.9896C-147.744 84.1555 -124.34 81.5644 -99.8208 80.287C-52.3445 77.8141 -0.628906 78.9962 44.9974 80.0391C68.5971 80.5348 90.9746 80.6588 112.61 80.777C139.566 80.9238 165.023 81.063 189.04 81.9228C198.586 82.2717 208.238 82.7312 217.725 83.2899C259.836 85.7856 296.962 90.0583 331.226 96.352C377.886 104.922 421.88 116.409 461.986 130.495C523.406 152.067 575.646 180.082 630.95 209.741C636.279 212.599 641.652 215.478 647.076 218.38C687.544 240.01 731.154 262.998 780.189 285.361C809.143 298.592 836.775 309.231 864.658 317.883C929.15 337.899 1000.65 349.783 1077.17 353.209C1102.45 354.345 1128.6 354.631 1154.89 354.061C1186.34 353.352 1217.7 351.439 1248.09 348.379C1306.86 342.459 1353.94 334.522 1396.24 323.401C1420.48 317.027 1443.77 308.823 1465.48 299.018C1502.81 282.279 1533.94 261.909 1564.05 242.209C1582.98 229.823 1600.86 218.126 1619.92 207.459L1623.85 205.259C1644.84 193.503 1666.55 181.346 1690.31 170.616C1725.43 154.686 1779.03 136.945 1834.89 142.881C1849.45 144.427 1863.9 147.239 1879.08 151.481C1911.38 160.44 1940.94 174.677 1969.51 188.446C1976.42 191.775 1983.57 195.219 1990.51 198.462C2023.01 213.648 2054.95 230.407 2085.44 248.275C2148.5 285.151 2208.84 328.623 2269.93 381.177L2269.39 381.344Z" fill="white"/>
<path d="M2267.16 367.493C2211.09 314.163 2149.99 268.659 2085.55 232.246C2054.22 214.5 2021.03 198.273 1986.89 184.015C1981.96 181.956 1976.91 179.819 1972.03 177.752C1939.77 164.099 1906.4 149.979 1870.87 142.238C1855.61 138.88 1841.18 136.831 1826.72 135.969C1771.27 132.667 1721.03 151.994 1688.65 168.789C1668.55 179.165 1650.4 190.704 1632.85 201.863C1629.81 203.794 1626.78 205.722 1623.74 207.642C1607.04 218.189 1591.43 229.972 1574.91 242.445C1546.82 263.65 1517.77 285.576 1480.62 303.307C1458.8 313.719 1435.93 321.769 1410.69 327.919C1357.89 340.783 1305.12 345.544 1260.48 348.507C1230.28 350.509 1198.91 351.386 1167.22 351.107C1140.99 350.85 1114.97 349.777 1089.91 347.92C1015.58 342.427 944.929 328.798 879.905 307.412C852.849 298.516 825.173 287.591 795.288 274.014C765.101 260.332 736.97 247.167 709.763 234.435C691.274 225.781 673.807 217.608 656.751 209.766C592.277 180.122 533.221 154.059 463.36 135.325C422.438 124.352 378.536 115.91 332.873 110.234C300.145 106.165 265.161 104.184 222.78 103.995C213.637 103.961 204.324 104.016 195.104 104.161C181.097 104.396 166.607 104.886 151.272 105.406C121.841 106.403 88.4784 107.534 52.5415 106.901C38.8566 106.659 24.8947 106.318 11.3907 105.986C-23.3424 105.134 -59.2571 104.253 -93.0928 105.04C-117.941 105.62 -141.441 107.435 -162.932 110.436C-239.44 121.122 -297.071 142.299 -317.1 167.083L-317.783 166.936C-312.54 160.446 -304.77 154.158 -294.693 148.246C-285.015 142.568 -273.154 137.204 -259.447 132.306C-233.033 122.869 -199.729 115.179 -163.131 110.068C-141.588 107.059 -118.037 105.238 -93.1335 104.659C-59.2608 103.869 -23.3313 104.752 11.4202 105.604C24.9205 105.936 38.8824 106.278 52.5637 106.52C88.4673 107.153 121.805 106.024 151.22 105.027C166.563 104.506 181.057 104.016 195.078 103.782C204.309 103.637 213.63 103.582 222.784 103.616C265.223 103.803 300.259 105.789 333.042 109.864C378.761 115.547 422.722 123.999 463.696 134.987C495.253 143.449 527.231 154.169 561.459 167.76C592.1 179.926 621.907 193.237 657.238 209.482C674.295 217.325 691.761 225.499 710.254 234.153C737.458 246.883 765.588 260.048 795.768 273.728C825.623 287.292 853.27 298.205 880.293 307.092C945.228 328.449 1015.78 342.059 1090 347.544C1115.04 349.399 1141.02 350.471 1167.23 350.728C1198.87 351.006 1230.21 350.131 1260.37 348.129C1304.97 345.172 1357.66 340.417 1410.37 327.576C1435.54 321.443 1458.35 313.414 1480.11 303.029C1517.19 285.328 1546.22 263.419 1574.29 242.231C1590.83 229.751 1606.44 217.962 1623.16 207.403C1626.2 205.483 1629.23 203.556 1632.26 201.626C1649.83 190.459 1667.99 178.913 1688.12 168.524C1709.19 157.597 1730.8 149.191 1752.36 143.54C1777.89 136.846 1802.93 134.173 1826.79 135.595C1841.32 136.461 1855.82 138.52 1871.14 141.891C1906.77 149.653 1940.18 163.79 1972.48 177.46C1977.36 179.527 1982.41 181.664 1987.34 183.722C2021.5 197.991 2054.72 214.233 2086.07 231.993C2120.29 251.328 2153.8 273.356 2185.67 297.467C2213.83 318.777 2241.46 342.278 2267.79 367.313L2267.16 367.493Z" fill="white"/>
<path d="M2264.93 353.637C2213.04 298.779 2152.88 252.471 2086.13 216C2053.94 198.366 2019.48 182.663 1983.7 169.325C1982 168.69 1980.3 168.055 1978.59 167.418C1941.39 153.53 1902.92 139.17 1862.97 132.705C1847.49 130.199 1833 128.901 1818.68 128.733C1763.46 128.089 1716.36 149.031 1686.58 166.711C1669.05 177.054 1653.5 188.39 1638.45 199.353C1634.73 202.065 1630.89 204.867 1627.09 207.598C1612.63 217.996 1599.18 229.819 1584.95 242.338C1559.06 265.108 1532.29 288.653 1495.34 307.345C1473.96 318.159 1450.9 326.27 1424.85 332.142C1373.52 343.71 1321.41 346.747 1272.74 348.306C1242.73 349.267 1211.37 349.103 1179.53 347.82C1153.38 346.733 1127.53 344.874 1102.69 342.297C1030.9 334.861 961.184 319.505 895.488 296.655C869.178 287.505 842.273 276.626 810.823 262.418C751.05 235.489 706.665 216.522 666.909 200.921C587.839 169.891 527.49 151.635 465.125 139.879C423.372 132.009 379.514 126.6 334.763 123.801C303.715 121.86 270.766 122.033 227.931 124.369C219.154 124.853 210.173 125.423 201.237 126.066C192.796 126.682 184.221 127.387 175.141 128.132C141.616 130.888 103.614 134.011 60.1225 133.427C37.1985 133.12 13.7834 132.279 -8.85989 131.467C-34.594 130.544 -61.2032 129.589 -86.4313 129.459C-111.726 129.33 -135.37 130.375 -156.688 132.567C-232.941 140.405 -293.389 157.765 -318.385 179.002L-319.094 178.779C-312.602 173.262 -303.755 167.963 -292.799 163.031C-282.223 158.268 -269.631 153.824 -255.37 149.818C-227.668 142.035 -193.599 135.923 -156.85 132.146C-135.473 129.949 -111.778 128.901 -86.424 129.03C-61.1736 129.16 -34.5497 130.115 -8.8045 131.04C13.8314 131.852 37.2354 132.693 60.1409 133C103.555 133.582 141.516 130.462 175.004 127.711C184.088 126.964 192.67 126.26 201.115 125.642C210.062 125 219.05 124.43 227.835 123.944C270.736 121.606 303.741 121.431 334.855 123.377C379.669 126.18 423.59 131.597 465.402 139.479C527.852 151.25 588.263 169.525 667.404 200.581C707.174 216.189 751.574 235.161 811.362 262.098C842.79 276.294 869.665 287.162 895.946 296.302C961.553 319.12 1031.17 334.455 1102.85 341.879C1127.65 344.453 1153.47 346.308 1179.59 347.395C1211.39 348.676 1242.71 348.84 1272.68 347.881C1321.28 346.323 1373.31 343.294 1424.51 331.753C1450.47 325.904 1473.44 317.82 1494.75 307.044C1531.62 288.391 1558.37 264.872 1584.23 242.126C1598.47 229.6 1611.92 217.767 1626.41 207.354C1630.2 204.625 1634.05 201.822 1637.77 199.111C1652.82 188.139 1668.39 176.795 1685.95 166.434C1705.38 154.895 1725.76 145.769 1746.51 139.305C1770.81 131.734 1795.11 128.037 1818.7 128.31C1833.1 128.478 1847.66 129.784 1863.21 132.3C1903.3 138.788 1941.82 153.168 1979.08 167.077C1980.78 167.713 1982.49 168.35 1984.19 168.983C2020.01 182.337 2054.51 198.059 2086.73 215.712C2153.54 252.216 2213.74 298.559 2265.67 353.456L2264.93 353.637Z" fill="white"/>
<path d="M1291.11 348.108C1289.04 348.108 1287 348.107 1284.99 348.101C1255.14 348.036 1223.79 346.835 1191.82 344.528C1165.76 342.612 1140.08 339.967 1115.47 336.671C1080.32 331.969 1045.04 325.212 1010.61 316.589C977.354 308.261 943.865 297.934 911.067 285.894C878.93 274.098 848.913 260.954 826.351 250.821C773.56 227.175 723.333 207.411 677.064 192.076C602.126 167.241 535.344 152.101 466.893 144.431C425.599 139.803 381.294 137.363 338.637 137.363C337.976 137.363 337.318 137.363 336.657 137.365C300.012 137.43 265.219 140.945 233.086 144.736C224.722 145.729 216.07 146.814 207.37 147.963C202.603 148.6 197.829 149.256 192.777 149.95C157.147 154.852 116.76 160.406 67.696 159.95C37.8151 159.672 7.29538 158.074 -22.2199 156.528C-41.2777 155.529 -60.9817 154.497 -79.7773 153.874C-105.615 153.018 -129.392 153.292 -150.455 154.694C-226.301 159.735 -289.568 173.279 -319.696 190.927L-320.39 190.612C-304.936 181.561 -281.691 173.725 -251.301 167.319C-222.277 161.203 -187.444 156.673 -150.573 154.223C-129.454 152.82 -105.615 152.541 -79.7182 153.401C-60.9041 154.025 -41.1891 155.058 -22.1239 156.057C7.37292 157.603 37.8742 159.201 67.7145 159.477C116.653 159.933 156.969 154.387 192.541 149.494C197.596 148.799 202.371 148.143 207.141 147.506C215.849 146.356 224.508 145.269 232.879 144.276C265.068 140.48 299.919 136.959 336.654 136.892C379.991 136.814 425.089 139.262 467.089 143.969C502.417 147.929 536.666 153.758 571.787 161.788C605.611 169.523 640.212 179.3 677.559 191.68C723.865 207.026 774.129 226.805 826.952 250.466C849.496 260.594 879.491 273.728 911.595 285.511C978.148 309.942 1046.82 327.001 1115.7 336.215C1140.27 339.508 1165.93 342.148 1191.94 344.063C1223.87 346.366 1255.18 347.567 1284.99 347.63C1331.64 347.729 1385.82 346.917 1438.65 335.925C1465.39 330.362 1488.53 322.226 1509.38 311.056C1546 291.437 1570.27 266.256 1593.76 241.903C1605.84 229.377 1617.24 217.545 1629.65 207.302C1633.62 204.021 1637.63 200.641 1641.51 197.371C1654.61 186.324 1668.15 174.904 1683.76 164.347C1701.59 152.202 1720.73 142.35 1740.64 135.067C1763.72 126.623 1787.25 121.898 1810.58 121.025C1824.98 120.486 1839.59 121.037 1855.25 122.711C1897.13 127.183 1938.64 140.179 1981.02 154.244C2017.96 166.507 2054.74 182.132 2087.36 199.43C2123.6 218.59 2157.65 241.066 2188.56 266.235C2216.1 288.659 2241.33 313.342 2263.54 339.599L2262.69 339.79C2214.99 283.4 2155.79 236.288 2086.7 199.764C2054.13 182.49 2017.41 166.888 1980.52 154.646C1938.21 140.606 1896.79 127.635 1855.06 123.178C1839.48 121.513 1824.95 120.966 1810.64 121.502C1767.78 123.109 1722.98 138.427 1684.49 164.637C1668.92 175.174 1655.38 186.585 1642.29 197.621C1638.42 200.892 1634.4 204.275 1630.43 207.556C1618.05 217.779 1606.65 229.602 1594.58 242.117C1583.06 254.066 1571.15 266.422 1557.48 278.3C1541.98 291.767 1526.47 302.588 1510.05 311.387C1489.1 322.608 1465.87 330.779 1439 336.37C1415.3 341.3 1389.83 344.558 1361.14 346.335C1336.84 347.832 1312.43 348.108 1291.11 348.108Z" fill="white"/>
<path d="M1350.33 349.063C1331.5 349.063 1313.41 348.484 1297.23 347.897C1267.48 346.818 1236.15 344.577 1204.1 341.237C1178.16 338.493 1152.63 335.065 1128.24 331.044C1061.44 320.057 995.496 301.767 926.632 275.133C896.6 263.52 868.288 251.024 841.871 239.223C789.716 215.991 737.686 197.153 687.219 183.231C612.997 162.757 543.553 151.872 468.673 148.978C426.009 147.328 381.017 148.001 338.559 150.922C303.021 153.367 269.518 159.266 238.241 165.096C230.416 166.562 222.093 168.164 213.508 169.855C211.362 170.28 209.198 170.713 207.005 171.149C170.983 178.341 130.224 186.478 77.9137 186.478C77.0312 186.478 76.1523 186.477 75.2624 186.471C39.8721 186.286 3.73953 183.678 -31.2077 181.153C-45.0625 180.152 -59.39 179.119 -73.1377 178.282C-99.9906 176.65 -123.247 176.168 -144.24 176.812C-220.593 179.157 -285.04 188.644 -321.051 202.847L-321.668 202.429C-303.865 195.409 -278.124 189.314 -247.235 184.803C-216.852 180.366 -181.258 177.422 -144.302 176.288C-123.251 175.641 -99.9352 176.124 -73.0232 177.76C-59.2607 178.597 -44.9296 179.632 -31.0711 180.631C3.84293 183.151 39.9423 185.758 75.2661 185.943C128.665 186.225 170.09 177.952 206.632 170.656C208.822 170.219 210.989 169.786 213.135 169.359C221.728 167.666 230.055 166.064 237.887 164.598C269.215 158.757 302.781 152.85 338.415 150.398C380.94 147.473 426.005 146.798 468.74 148.449C505.847 149.883 541.227 153.269 576.898 158.798C613.636 164.493 649.875 172.331 687.688 182.764C738.218 196.705 790.314 215.565 842.524 238.82C868.93 250.618 897.224 263.106 927.23 274.708C996.002 301.305 1061.85 319.568 1128.54 330.539C1152.9 334.552 1178.39 337.977 1204.29 340.716C1236.29 344.053 1267.59 346.291 1297.29 347.367C1347.28 349.178 1400.47 350.108 1452.78 340.085C1480.31 334.81 1503.61 326.623 1524 315.056C1560.33 294.451 1582.94 266.346 1602.89 241.549C1612.93 229.072 1622.41 217.287 1632.87 207.241C1636.64 203.617 1640.44 199.87 1644.12 196.248C1655.61 184.913 1667.49 173.193 1681.56 162.247C1697.83 149.496 1715.73 138.92 1734.76 130.813C1756.62 121.504 1779.4 115.753 1802.44 113.727C1816.85 112.459 1831.51 112.257 1847.28 113.103C1891.31 115.473 1936.05 127.183 1977.83 139.487C2016.42 150.846 2054.51 165.939 2087.99 183.132C2125.24 202.202 2159.56 224.904 2189.99 250.603C2217.21 273.585 2241.23 298.859 2261.4 325.727L2260.45 325.915C2217.59 268.805 2157.71 219.56 2087.28 183.502C2053.86 166.341 2015.84 151.277 1977.33 139.94C1935.65 127.666 1891.03 115.984 1847.18 113.624C1831.51 112.781 1816.93 112.983 1802.62 114.241C1760.07 117.984 1717.38 135.134 1682.41 162.533C1668.37 173.456 1656.5 185.165 1645.02 196.488C1641.35 200.113 1637.55 203.859 1633.77 207.487C1623.33 217.51 1613.86 229.283 1603.83 241.747C1583.85 266.582 1561.2 294.733 1524.75 315.406C1504.25 327.037 1480.82 335.269 1453.14 340.575C1429.11 345.178 1403.2 347.843 1373.9 348.718C1365.98 348.966 1358.1 349.063 1350.33 349.063Z" fill="white"/>
<path d="M1387.5 351.128C1387.23 351.128 1386.96 351.128 1386.69 351.128C1360.08 351.094 1333.96 349.413 1309.47 347.693C1279.77 345.607 1248.45 342.326 1216.39 337.944C1190.56 334.377 1165.2 330.162 1141.01 325.418C1076.89 312.859 1013.72 293.463 942.207 264.374C916.455 253.902 891.112 242.624 866.6 231.72C863.535 230.355 860.467 228.992 857.398 227.629C804.974 204.402 751.139 186.49 697.392 174.391C623.794 157.824 549.568 150.999 470.471 153.525C427.101 154.911 382.151 158.699 340.479 164.48C307.6 169.043 278.302 176.362 243.414 185.457C236.343 187.308 228.791 189.306 219.656 191.747L219.146 191.884C201.521 196.624 181.544 201.994 159.137 206.078C133.403 210.769 108.437 213.026 82.8358 212.999C42.9145 212.948 2.17352 209.112 -37.2234 205.4C-46.8759 204.49 -56.8608 203.55 -66.4987 202.7C-94.1381 200.265 -117.535 199.035 -138.025 198.942C-213.473 198.599 -280.687 204.372 -322.429 214.778L-322.909 214.263C-302.463 209.165 -274.882 205.028 -243.151 202.298C-211.361 199.562 -175.003 198.204 -138.014 198.372C-117.465 198.465 -94.0089 199.697 -66.3103 202.137C-56.6651 202.988 -46.6802 203.928 -37.0239 204.837C2.32492 208.544 43.0142 212.376 82.8394 212.427C83.0167 212.427 83.1976 212.427 83.3748 212.427C140.341 212.427 183.741 200.759 218.637 191.377L219.15 191.239C228.289 188.797 235.841 186.799 242.916 184.948C277.863 175.838 307.212 168.505 340.195 163.929C381.937 158.137 426.961 154.343 470.405 152.955C509.111 151.719 545.621 152.661 582.026 155.838C621.257 159.26 659.14 165.157 697.835 173.868C751.685 185.99 805.612 203.932 858.122 227.196C861.191 228.559 864.259 229.924 867.324 231.289C891.825 242.189 917.16 253.463 942.89 263.928C1014.31 292.981 1077.38 312.35 1141.4 324.888C1165.56 329.626 1190.88 333.834 1216.67 337.397C1248.69 341.773 1279.96 345.048 1309.62 347.13C1362.75 350.863 1414.76 353.453 1466.94 344.27C1495.25 339.287 1518.71 331.048 1538.64 319.082C1574.64 297.467 1594.31 267.517 1611.66 241.089C1619.79 228.717 1627.46 217.03 1636.12 207.209C1639.45 203.43 1642.79 199.522 1646.02 195.741C1656.12 183.92 1666.57 171.699 1679.38 160.175C1694.12 146.812 1710.79 135.51 1728.9 126.583C1749.56 116.409 1771.56 109.637 1794.32 106.457C1808.43 104.485 1822.83 103.524 1838.3 103.524C1838.63 103.524 1838.97 103.524 1839.31 103.526C1887.41 103.656 1936.91 114.939 1974.66 124.754C2014.88 135.212 2054.29 149.771 2088.64 166.858C2126.9 185.84 2161.49 208.765 2191.45 234.998C2218.32 258.538 2241.15 284.405 2259.28 311.883L2258.23 312.068C2231.25 271.183 2179.79 212.875 2087.87 167.272C2053.61 150.223 2014.29 135.698 1974.17 125.265C1936.52 115.477 1887.17 104.226 1839.31 104.098C1823.54 104.051 1808.93 105.008 1794.61 107.01C1752.45 112.903 1711.87 131.885 1680.34 160.459C1667.56 171.956 1657.12 184.164 1647.03 195.972C1643.8 199.754 1640.45 203.665 1637.12 207.445C1628.49 217.242 1620.82 228.914 1612.71 241.272C1595.33 267.747 1575.62 297.755 1539.48 319.454C1519.42 331.5 1495.8 339.794 1467.29 344.81C1443.13 349.06 1417.02 351.128 1387.5 351.128Z" fill="white"/>
<path d="M1417.05 353.813C1411.32 353.813 1405.46 353.717 1399.46 353.527C1373.22 352.693 1347.71 350.194 1321.71 347.486C1291.58 344.348 1261.14 340.15 1228.67 334.651C1202.97 330.262 1177.78 325.263 1153.78 319.789C1092.9 305.924 1032.45 285.514 957.783 253.613C939.239 245.691 920.702 237.382 902.774 229.346C893.014 224.972 882.926 220.448 872.93 216.03C819.881 192.648 764.248 175.664 707.573 165.548C632.69 152.18 555.728 149.732 472.281 158.064C428.195 162.466 383.285 169.37 342.411 178.028C309.576 184.983 280.973 194.751 250.689 205.092L248.595 205.807C243.865 207.428 239.083 209.071 234.242 210.734C231.454 211.693 228.648 212.658 225.815 213.63C208.157 219.725 189.085 226.084 167.213 230.978C141.819 236.66 116.701 239.455 90.4171 239.523C46.6592 239.634 2.02621 234.383 -41.1335 229.3C-47.2928 228.574 -53.6663 227.825 -59.8515 227.113C-88.8499 223.777 -111.711 221.857 -131.806 221.068C-205.962 218.156 -275.945 220.208 -323.817 226.698L-324.123 226.099C-276.126 219.592 -205.999 217.533 -131.714 220.45C-111.563 221.241 -88.6431 223.167 -59.5893 226.509C-53.4005 227.222 -47.0269 227.971 -40.8639 228.698C1.76773 233.718 45.8358 238.906 89.0139 238.906C89.4792 238.906 89.9445 238.906 90.4135 238.904C146.261 238.759 186.016 226.622 225.154 213.115C227.987 212.143 230.793 211.178 233.581 210.219C238.422 208.555 243.2 206.913 247.934 205.291L250.028 204.576C280.363 194.217 309.014 184.432 341.957 177.454C382.904 168.779 427.892 161.864 472.056 157.454C555.713 149.101 632.882 151.557 707.968 164.96C764.783 175.103 820.546 192.125 873.713 215.559C883.709 219.979 893.801 224.501 903.56 228.877C921.481 236.911 940.014 245.218 958.548 253.135C1033.13 285 1093.49 305.381 1154.27 319.223C1178.23 324.687 1203.39 329.681 1229.04 334.062C1261.47 339.553 1291.86 343.746 1321.95 346.878C1367.63 351.635 1424.48 357.557 1481.09 348.436C1510.2 343.748 1533.81 335.458 1553.27 323.091C1588.93 300.441 1605.46 268.584 1620.05 240.479C1626.39 228.269 1632.37 216.736 1639.36 207.165C1642.08 203.435 1644.81 199.578 1647.44 195.847C1656.29 183.334 1665.44 170.396 1677.19 158.091C1690.45 144.106 1705.87 132.077 1723.04 122.338C1742.49 111.303 1763.74 103.511 1786.19 99.177C1800.6 96.3953 1815.36 94.6812 1831.33 93.9358C1852.72 92.9367 1875.49 94.0044 1900.93 97.1922C1922.46 99.8919 1945.54 104.083 1971.49 110.006C2013.34 119.56 2054.07 133.587 2089.28 150.569C2128.56 169.462 2163.42 192.614 2192.89 219.378C2219.43 243.48 2241.05 269.939 2257.15 298.025L2256 298.201C2222 238.906 2162.5 186.636 2088.46 151.023C2053.35 134.087 2012.73 120.1 1971 110.575C1915.09 97.8119 1870.75 92.7193 1831.44 94.5535C1815.58 95.2932 1800.91 96.9958 1786.61 99.7566C1733.19 110.066 1698.21 137.318 1678.27 158.363C1666.55 170.638 1657.41 183.561 1648.57 196.059C1645.93 199.792 1643.2 203.651 1640.48 207.382C1633.52 216.925 1627.54 228.444 1621.21 240.639C1606.59 268.805 1590.02 300.729 1554.2 323.482C1534.58 335.946 1510.78 344.302 1481.44 349.029C1461.56 352.232 1440.35 353.813 1417.05 353.813Z" fill="white"/>
<path d="M1442.65 356.89C1403.6 356.89 1366.06 351.71 1333.94 347.279C1303.72 343.111 1273.3 337.902 1240.94 331.357C1215.39 326.152 1190.36 320.367 1166.54 314.161C1095.15 295.58 1031.5 268.908 973.351 242.853C961.479 237.533 949.485 232.05 937.89 226.748C921.79 219.384 905.14 211.771 888.457 204.435C834.614 180.822 777.183 164.762 717.761 156.703C640.891 146.28 561.185 148.207 474.09 162.598C429.247 170.007 384.381 180.026 344.342 191.573C313.46 200.477 287.331 211.718 259.669 223.619C257.708 224.462 255.744 225.308 253.768 226.155L252.698 226.616C245.973 229.512 239.02 232.506 231.971 235.51C215.081 242.742 196.481 250.222 174.967 255.936C149.994 262.569 124.817 265.877 97.9903 266.048C50.9017 266.351 2.90836 259.516 -43.5009 252.906C-46.7541 252.443 -49.9925 251.981 -53.2162 251.526C-83.8209 247.19 -106.147 244.62 -125.599 243.19C-197.894 237.878 -270.654 236.208 -325.224 238.609L-325.335 237.943C-270.676 235.537 -197.809 237.209 -125.419 242.529C-105.91 243.962 -83.5365 246.538 -52.8765 250.881C-49.6528 251.337 -46.4143 251.798 -43.1574 252.264C3.16315 258.86 51.0642 265.678 97.9719 265.381C156.231 265.007 197.26 249.501 231.144 234.996C238.193 231.991 245.146 228.997 251.87 226.103L252.941 225.642C254.917 224.793 256.881 223.949 258.842 223.106C286.552 211.184 312.725 199.924 343.71 190.989C383.823 179.422 428.774 169.386 473.695 161.963C514.986 155.142 553.77 151.203 592.259 149.921C635.193 148.493 677.526 150.558 718.086 156.059C777.696 164.143 835.298 180.248 889.292 203.926C905.986 211.266 922.64 218.881 938.743 226.246C950.338 231.548 962.325 237.03 974.193 242.347C1032.28 268.374 1095.85 295.017 1167.12 313.564C1190.9 319.761 1215.9 325.538 1241.41 330.735C1273.73 337.271 1304.1 342.472 1334.27 346.634C1380.6 353.025 1438.26 360.98 1495.23 352.61C1525.12 348.217 1548.89 339.876 1567.89 327.109C1603.17 303.393 1616.38 269.575 1628.03 239.737C1632.71 227.749 1637.13 216.425 1642.58 207.127C1644.6 203.687 1646.62 200.133 1648.58 196.696C1656.24 183.251 1664.16 169.346 1674.99 156.013C1686.77 141.395 1700.95 128.636 1717.14 118.095C1735.41 106.199 1755.89 97.387 1778.03 91.9017C1792.41 88.3402 1807.23 85.8711 1823.34 84.3516C1845.03 82.3058 1869.11 82.3744 1894.9 84.5556C1917.48 86.466 1942.17 90.0675 1968.29 95.263C2011.77 103.913 2053.82 117.406 2089.9 134.283C2130.2 153.088 2165.33 176.463 2194.32 203.762C2220.51 228.424 2240.93 255.478 2255.01 284.172L2253.75 284.336C2223.92 223.535 2165.42 170.421 2089.03 134.779C2053.07 117.957 2011.16 104.508 1967.83 95.8865C1911.65 84.7119 1864.46 81.1523 1823.57 85.0094C1807.58 86.5175 1792.87 88.9694 1778.59 92.5042C1725.91 105.555 1693.82 134.383 1676.18 156.27C1665.38 169.569 1657.47 183.455 1649.82 196.883C1647.86 200.32 1645.83 203.876 1643.82 207.319C1638.39 216.587 1633.97 227.895 1629.29 239.869C1623.69 254.224 1617.34 270.493 1608.12 285.745C1597.55 303.221 1584.73 316.884 1568.91 327.515C1559.77 333.662 1549.26 338.894 1537.67 343.065C1525.21 347.551 1511.05 350.979 1495.58 353.252C1477.88 355.855 1460.11 356.89 1442.65 356.89Z" fill="white"/>
<path d="M1465.73 360.266C1452.82 360.266 1439.3 359.618 1425.01 358.323C1396.87 355.774 1369.94 351.149 1346.17 347.071C1316.22 341.929 1284.94 335.532 1253.22 328.06C1227.83 322.047 1202.96 315.476 1179.3 308.529C1111.41 288.611 1052.91 262.126 988.919 232.09C983.233 229.42 977.457 226.698 971.874 224.063C949.884 213.693 927.149 202.97 903.985 192.838C849.249 168.949 790.022 153.816 727.949 147.86C649.65 140.346 564.844 146.828 475.9 167.13C430.258 177.548 385.433 190.68 346.273 205.111C316.787 215.977 292.515 228.787 266.818 242.351C264.208 243.729 261.586 245.112 258.949 246.5C252.387 249.958 245.32 253.67 238.13 257.386C223.053 265.205 204.678 274.115 182.726 280.889C158.151 288.473 132.912 292.296 105.571 292.572C55.5212 293.082 4.5737 284.525 -44.6973 276.25L-46.5732 275.936C-70.6972 271.886 -96.2171 267.794 -119.385 265.31C-190.003 257.739 -263.601 252.482 -326.616 250.509L-326.531 249.796C-263.45 251.771 -189.785 257.032 -119.104 264.61C-95.87 267.102 -70.3058 271.2 -46.1448 275.255L-44.2689 275.569C4.89499 283.825 55.7391 292.361 105.546 291.856C163.066 291.272 202.791 274.7 237.151 256.877C244.341 253.163 251.401 249.451 257.963 245.994C260.6 244.608 263.222 243.224 265.832 241.847C291.574 228.261 315.89 215.428 345.472 204.526C384.706 190.066 429.616 176.909 475.342 166.472C517.073 156.949 558.139 150.386 597.391 146.97C642.242 143.067 686.255 143.128 728.207 147.153C790.517 153.132 849.961 168.318 904.882 192.289C928.064 202.431 950.811 213.157 972.812 223.533C978.395 226.166 984.171 228.888 989.857 231.558C1053.79 261.565 1112.22 288.021 1180 307.905C1203.62 314.842 1228.45 321.402 1253.8 327.408C1285.48 334.868 1316.7 341.255 1346.61 346.39C1393.5 354.44 1451.85 364.455 1509.39 356.781C1540.08 352.687 1564 344.297 1582.52 331.126C1617.42 306.311 1627.52 268.91 1635.64 238.856C1638.8 227.15 1641.78 216.093 1645.83 207.094C1647.1 204.257 1648.39 201.334 1649.64 198.507C1656.1 183.818 1662.79 168.628 1672.81 153.94C1688.3 131.082 1717.71 100.504 1769.9 84.6353C1784.32 80.2539 1799.19 77.0279 1815.36 74.7743C1857.68 68.7934 1908.06 70.7285 1965.11 80.5227C2010.23 88.2692 2053.6 101.228 2090.54 118.001C2131.86 136.716 2167.27 160.316 2195.77 188.15C2208.85 200.917 2220.4 214.553 2230.12 228.679C2239.41 242.172 2247.06 256.183 2252.89 270.324L2251.53 270.473C2225.88 208.162 2168.38 154.203 2089.63 118.536C2052.82 101.827 2009.62 88.9175 1964.67 81.1996C1907.89 71.4492 1857.77 69.5198 1815.72 75.4626C1799.67 77.6991 1784.91 80.9002 1770.6 85.2492C1718.77 101.007 1689.53 131.429 1674.12 154.175C1664.12 168.825 1657.44 183.994 1650.99 198.663C1649.74 201.491 1648.46 204.415 1647.18 207.254C1643.15 216.223 1640.16 227.264 1637.01 238.953C1632.92 254.076 1628.3 271.217 1620.39 287.394C1611.3 305.983 1599.28 320.426 1583.64 331.545C1574.72 337.888 1564.29 343.238 1552.63 347.444C1540.08 351.976 1525.64 355.351 1509.73 357.471C1495.77 359.336 1481.19 360.266 1465.73 360.266Z" fill="white"/>
<path d="M1487 363.832C1471.53 363.832 1455.21 362.797 1437.78 360.721C1409.54 357.359 1382.37 351.781 1358.4 346.858C1328.22 340.661 1296.96 333.227 1265.49 324.76C1240.27 317.944 1215.57 310.588 1192.07 302.895C1127.4 281.742 1071.94 254.477 1013.22 225.615C1010.31 224.187 1007.4 222.757 1004.49 221.327C977.184 207.92 948.95 194.055 919.516 181.243C863.827 157.05 802.806 142.842 738.147 139.014C656.931 134.203 569.309 145.187 477.709 171.657C431.89 184.896 385.898 201.585 348.204 218.647C319.741 231.53 296.913 246.025 272.745 261.374C269.883 263.19 267.014 265.013 264.122 266.84C258.347 270.495 251.475 274.828 244.282 279.261C230.959 287.492 212.806 297.952 190.48 305.82C166.297 314.344 141.002 318.69 113.148 319.1C90.2539 319.395 64.9888 317.57 35.9055 313.519C10.9359 310.041 -13.2177 305.496 -39.9451 300.348C-64.3425 295.591 -90.0913 290.678 -113.192 287.433C-181.621 277.82 -253.901 269.402 -328.02 262.409L-327.754 261.659C-253.591 268.655 -181.27 277.08 -112.805 286.697C-89.6408 289.951 -63.855 294.872 -39.4282 299.633C5.37103 308.264 61.1263 319.01 113.108 318.337C172.537 317.46 210.73 298.802 243.148 278.769C250.338 274.34 257.206 270.008 262.978 266.355C265.869 264.529 268.738 262.706 271.596 260.891C295.805 245.518 318.674 230.998 347.229 218.073C385.001 200.976 431.082 184.255 476.989 170.991C568.865 144.442 656.791 133.429 738.317 138.257C769.576 140.108 800.28 144.408 829.57 151.035C860.998 158.145 891.581 168.114 920.468 180.662C949.936 193.487 978.188 207.36 1005.51 220.776C1008.42 222.208 1011.33 223.636 1014.24 225.064C1072.9 253.902 1128.32 281.139 1192.86 302.253C1216.33 309.935 1240.99 317.281 1266.18 324.085C1297.6 332.539 1328.81 339.963 1358.95 346.15C1406.31 355.874 1465.26 367.975 1523.54 360.957C1555.11 357.155 1579.19 348.713 1597.15 335.149C1631.73 309.242 1637.89 269.667 1642.85 237.869C1644.62 226.496 1646.29 215.754 1649.06 207.068C1649.64 205.276 1650.21 203.474 1650.78 201.663C1655.96 185.302 1661.31 168.383 1670.62 151.872C1683.91 128.123 1710.5 95.9209 1761.76 77.3736C1776.05 72.1991 1790.97 68.2181 1807.37 65.2019C1830.16 60.9711 1855.55 58.9825 1882.84 59.2876C1907.76 59.566 1934.37 61.7528 1961.92 65.7853C2008.66 72.6242 2053.35 85.0495 2091.17 101.717C2133.51 120.341 2169.19 144.169 2197.21 172.538C2210.07 185.554 2221.2 199.47 2230.3 213.899C2239.01 227.718 2245.9 242.044 2250.75 256.479L2249.29 256.609C2228.15 193.708 2170.16 137.464 2090.21 102.297C2052.56 85.7016 2008.05 73.3278 1961.51 66.5155C1904.12 58.1151 1850.99 57.9091 1807.86 65.9168C1791.59 68.9102 1776.79 72.8607 1762.6 77.9951C1711.7 96.4148 1685.26 128.451 1672.04 152.082C1662.75 168.549 1657.41 185.443 1652.24 201.783C1651.66 203.594 1651.09 205.398 1650.52 207.19C1647.75 215.844 1646.08 226.572 1644.32 237.928C1639.35 269.818 1633.17 309.507 1598.36 335.58C1589.71 342.118 1579.35 347.59 1567.6 351.84C1554.95 356.412 1540.24 359.729 1523.88 361.701C1512.06 363.119 1499.82 363.832 1487 363.832Z" fill="white"/>
<path d="M1506.99 367.545C1489.36 367.545 1470.68 366.073 1450.55 363.117C1422.07 358.936 1394.73 352.406 1370.62 346.646C1340.14 339.367 1308.9 330.892 1277.76 321.462C1252.72 313.855 1228.18 305.712 1204.82 297.264C1147.3 276.466 1098.14 250.989 1046.09 224.014C1037.58 219.604 1028.78 215.045 1020.05 210.563C989.367 194.814 963.163 181.829 935.037 169.647C878.354 145.134 815.542 131.851 748.34 130.166C663.896 128.047 573.445 143.529 479.504 176.179C432.836 192.401 386.885 212.287 350.117 232.176C322.419 247.16 300.765 263.471 277.841 280.739C275.002 282.878 272.151 285.025 269.282 287.174C264.171 291.008 257.406 296.06 250.423 301.126C221.037 322.495 182.645 344.496 120.715 345.621C118.784 345.653 116.845 345.668 114.911 345.668C66.5516 345.668 17.1809 335.786 -33.3271 324.753L-36.4807 324.059C-61.4984 318.545 -85.1313 313.338 -107.007 309.548C-189.445 295.264 -269.173 283.206 -329.422 274.299L-328.99 273.519C-268.726 282.43 -188.976 294.489 -106.508 308.779C-84.5737 312.579 -60.9149 317.794 -35.864 323.313L-32.7141 324.007C19.6439 335.445 70.776 345.647 120.66 344.812C181.903 343.699 219.974 321.868 249.142 300.659C256.121 295.597 262.879 290.549 267.989 286.716C270.858 284.566 273.706 282.421 276.545 280.281C299.506 262.987 321.193 246.649 348.98 231.618C385.822 211.686 431.865 191.76 478.625 175.506C522.025 160.421 565.439 148.839 607.661 141.077C656.105 132.171 703.463 128.228 748.414 129.355C815.964 131.048 879.093 144.396 936.041 169.024C964.208 181.224 990.437 194.223 1021.15 209.985C1029.89 214.468 1038.69 219.028 1047.2 223.438C1099.19 250.386 1148.31 275.839 1205.72 296.594C1229.04 305.033 1253.54 313.163 1278.55 320.758C1309.64 330.177 1340.84 338.639 1371.27 345.907C1419.05 357.318 1478.51 371.518 1537.68 365.125C1570.03 361.63 1594.26 353.138 1611.76 339.165C1645.91 312.078 1647.97 270.276 1649.62 236.687C1650.15 225.728 1650.66 215.375 1652.29 207.034L1652.33 206.843C1655.98 188.164 1659.76 168.85 1668.42 149.794C1675.92 133.172 1686.36 118.228 1699.46 105.374C1714.23 90.8821 1732.45 79.0154 1753.6 70.1021C1767.75 64.1382 1782.72 59.4003 1799.36 55.6196C1844.33 45.3449 1899.43 43.7586 1958.71 51.0361C1982.57 53.9646 2006.1 58.4013 2028.66 64.2202C2051.35 70.0735 2072.59 77.2099 2091.79 85.4273C2135.16 103.961 2171.11 128.015 2198.65 156.921C2223.39 182.902 2240.67 212.54 2248.61 242.628L2247.06 242.737C2230.07 178.34 2173.11 121.229 2090.79 86.0508C2052.3 69.5739 2006.5 57.7378 1958.35 51.8292C1899.41 44.5937 1844.65 46.1628 1800 56.3669C1783.49 60.1191 1768.64 64.8189 1754.59 70.7351C1715.1 87.3778 1685.84 114.781 1669.95 149.983C1661.31 168.99 1657.54 188.277 1653.9 206.929L1653.86 207.12C1652.23 215.431 1651.72 225.768 1651.19 236.712C1649.53 270.403 1647.47 312.331 1613.07 339.609C1604.64 346.347 1594.36 351.937 1582.54 356.223C1569.79 360.845 1554.81 364.107 1538.01 365.924C1528 367.003 1517.68 367.545 1506.99 367.545Z" fill="white"/>
<path d="M121.863 372.213C100.239 372.213 76.6911 370.038 50.1151 365.595C23.709 361.181 -2.40543 355.088 -26.6956 349.162C-31.0936 348.083 -35.4583 347.006 -39.7935 345.936C-61.3733 340.611 -81.7567 335.582 -100.807 331.664C-176.769 316.047 -249.174 302.01 -319.198 288.439L-330.8 286.189L-330.217 285.387L-318.614 287.636C-248.587 301.211 -176.17 315.248 -100.194 330.868C-81.092 334.796 -60.6828 339.831 -39.0771 345.164C-34.7456 346.234 -30.3809 347.311 -25.9867 348.388C23.8752 360.552 76.8499 372.341 128.229 371.29C191.388 369.933 229.238 344.529 255.153 322.552C261.792 316.931 268.188 311.33 273.018 307.078C275.684 304.735 278.332 302.393 280.972 300.058C302.87 280.696 323.552 262.408 350.752 245.165C386.656 222.408 432.655 199.273 480.283 180.026C524.469 162.169 569.058 148.06 612.816 138.092C663.006 126.659 712.03 120.725 758.524 120.456C828.485 119.919 893.464 132.346 951.631 157.389C983.875 171.288 1012.78 186.324 1036.82 199.199C1049.89 206.206 1062.97 213.388 1075.62 220.334C1120.38 244.923 1166.67 270.347 1218.59 290.941C1241.78 300.142 1266.12 309.057 1290.93 317.437C1321.63 327.784 1352.81 337.282 1383.61 345.668C1431.75 358.773 1491.65 375.084 1551.84 369.296C1584.97 366.11 1609.35 357.568 1626.38 343.183C1660.08 314.868 1657.81 270.776 1655.98 235.348C1655.44 224.871 1654.93 214.974 1655.54 207.006C1656.93 189.044 1659.01 168.169 1666.24 147.723C1672.33 130.397 1681.52 114.723 1693.57 101.137C1707.19 85.7678 1724.65 72.883 1745.46 62.8391C1759.24 56.1831 1774.69 50.5339 1791.37 46.0458C1815.17 39.6205 1841.88 35.5805 1870.76 34.0399C1897.81 32.5966 1926.32 33.3555 1955.51 36.2935C1980.13 38.7721 2004.4 42.8484 2027.64 48.4118C2051.02 54.0096 2072.82 60.9839 2092.43 69.1404C2115.03 78.5323 2135.82 89.6229 2154.2 102.105C2171.63 113.932 2187.07 127.122 2200.1 141.307C2224.48 167.845 2240.52 198.095 2246.48 228.782L2244.83 228.867C2232.01 162.97 2176.08 104.996 2091.39 69.8096C2052.59 53.676 2004.23 42.0724 1955.2 37.1362C1894.57 31.0332 1838.18 34.3774 1792.14 46.8065C1775.59 51.2584 1760.27 56.8638 1746.59 63.4663C1707.39 82.3912 1680.9 110.79 1667.87 147.877C1660.66 168.268 1658.58 189.107 1657.2 207.041C1656.59 214.98 1657.1 224.862 1657.64 235.325C1658.54 252.803 1659.56 272.614 1656.14 291.766C1652.16 313.989 1642.89 330.954 1627.8 343.631C1619.59 350.567 1609.39 356.278 1597.49 360.602C1584.64 365.273 1569.38 368.482 1552.15 370.139C1543.45 370.976 1534.76 371.355 1526.13 371.355C1474.4 371.355 1424.28 357.708 1382.84 346.424C1352 338.026 1320.77 328.514 1290.03 318.151C1265.18 309.761 1240.8 300.832 1217.58 291.617C1165.56 270.982 1119.22 245.531 1074.41 220.919C1061.76 213.975 1048.69 206.795 1035.62 199.792C1011.63 186.932 982.756 171.917 950.571 158.045C892.718 133.135 828.119 120.781 758.55 121.311C649.295 121.944 547.482 153.953 481.309 180.697C433.778 199.906 387.871 222.991 352.044 245.703C324.926 262.894 304.273 281.154 282.409 300.485C279.768 302.821 277.117 305.162 274.451 307.507C269.617 311.761 263.218 317.366 256.575 322.992C245.696 332.218 228.618 345.648 205.997 355.715C195.011 360.604 183.32 364.446 171.249 367.136C157.789 370.135 143.336 371.82 128.3 372.142C126.169 372.19 124.023 372.213 121.863 372.213Z" fill="white"/>
<path d="M128.806 398.757C107.156 398.757 83.6561 396.414 57.2205 391.632C29.8506 386.683 2.79083 379.724 -20.0667 373.567C-27.0901 371.672 -34.0987 369.75 -40.8784 367.891C-59.8291 362.696 -77.7311 357.786 -94.6102 353.779C-155.225 339.384 -215.445 325.33 -273.685 311.738C-292.95 307.243 -312.868 302.594 -332.173 298.079L-331.449 297.254C-312.144 301.769 -292.226 306.417 -272.961 310.913C-214.721 324.505 -154.494 338.56 -93.8753 352.957C-76.9519 356.976 -59.0278 361.889 -40.055 367.092C-33.279 368.951 -26.2703 370.871 -19.2543 372.767C28.1519 385.529 83.1391 399.039 135.793 397.768C200.44 396.17 236.75 368.431 261.165 344.444C267.424 338.299 273.477 332.129 278.048 327.441C280.397 325.035 282.73 322.631 285.061 320.232C306.005 298.659 325.787 278.283 352.529 258.716C387.31 233.267 433.272 206.927 481.941 184.549C549.72 153.519 654.477 115.67 768.631 111.565C841.229 108.884 908.047 120.388 967.222 145.761C993.809 157.167 1020.1 170.322 1052.48 188.422C1068.84 197.567 1085.08 207.047 1100.78 216.212C1141.63 240.058 1183.87 264.716 1231.46 285.298C1254.52 295.271 1278.69 304.97 1303.32 314.125C1333.13 325.201 1364.3 335.737 1395.95 345.441C1444.57 360.257 1505.09 378.7 1566 373.48C1599.39 370.677 1624.63 361.84 1641.01 347.216C1674.24 317.62 1667.11 269.2 1661.9 233.846C1660.44 223.924 1659.06 214.553 1658.79 206.994C1658.18 190.193 1658.23 168.04 1664.06 145.666C1674.11 106.895 1698.76 76.5882 1737.32 55.5908C1750.83 48.1932 1766.34 41.7661 1783.39 36.4867C1807.64 28.9671 1835.01 23.9089 1864.73 21.4551C1892.73 19.1443 1922.2 19.1806 1952.32 21.5638C1977.73 23.6191 2002.73 27.3446 2026.6 32.6335C2050.71 37.9758 2073.07 44.7823 2093.06 52.8644C2116.17 62.2029 2137.29 73.3317 2155.82 85.9439C2173.37 97.8963 2188.76 111.273 2201.54 125.706C2225.55 152.802 2240.35 183.663 2244.36 214.95L2242.61 215.009C2233.98 147.607 2179.08 88.7675 2091.98 53.5794C2052.49 37.6154 2002.8 26.5629 1952.05 22.4599C1889.49 17.5123 1831.49 22.6315 1784.29 37.2646C1767.38 42.5002 1752.01 48.8758 1738.6 56.2143C1700.29 77.0725 1675.8 107.208 1665.8 145.788C1659.99 168.101 1659.94 190.21 1660.55 206.978C1660.82 214.511 1662.2 223.871 1663.66 233.779C1666.35 252.054 1669.4 272.769 1667.65 292.993C1665.62 316.541 1657.4 334.427 1642.53 347.672C1634.53 354.816 1624.41 360.65 1612.45 365.012C1599.48 369.743 1583.95 372.892 1566.29 374.376C1538.89 376.723 1509.4 374.614 1476.13 367.928C1447.21 362.114 1419.51 353.672 1395.07 346.225C1363.37 336.507 1332.16 325.956 1302.3 314.865C1277.64 305.696 1253.43 295.984 1230.34 285.997C1182.64 265.374 1140.36 240.689 1099.47 216.818C1083.77 207.655 1067.54 198.181 1051.19 189.043C1018.87 170.976 992.627 157.845 966.103 146.467C907.279 121.239 840.885 109.803 768.749 112.467C655.086 116.556 550.676 154.29 483.101 185.226C434.528 207.558 388.661 233.842 353.954 259.238C327.286 278.75 307.534 299.098 286.623 320.638C284.292 323.039 281.959 325.443 279.61 327.849C275.035 332.541 268.979 338.717 262.713 344.867C238.083 369.068 201.407 397.055 135.87 398.673C133.54 398.729 131.181 398.757 128.806 398.757Z" fill="white"/>
<path d="M135.888 425.303C76.7321 425.303 14.6624 406.543 -40.3617 389.912C-57.2703 384.803 -73.241 379.975 -88.4178 375.893L-333.547 309.969L-332.694 309.124L-87.5648 375.048C-72.3474 379.14 -56.3582 383.973 -39.4275 389.09C17.7237 406.364 82.5038 425.943 143.355 424.246C209.427 422.406 244.234 392.332 267.177 366.339C274.68 357.838 281.925 349.187 288.934 340.821C308.102 317.942 327.921 294.283 354.297 272.264C375.242 254.78 401.26 236.445 429.539 219.241C460.561 200.368 493.776 183.052 528.254 167.777C566.27 150.936 604.925 137.004 643.14 126.371C685.41 114.611 727.052 106.933 766.917 103.549C846.778 96.7711 919.413 107.057 982.797 134.125C1035.47 156.617 1080.24 184.431 1123.54 211.329C1161.23 234.742 1200.19 258.95 1244.32 279.644C1295.29 303.545 1350.46 325.603 1408.29 345.201C1457.01 361.714 1517.65 382.267 1580.15 377.647C1632.93 373.746 1663.45 355.512 1673.44 321.898C1681.94 293.307 1673.86 259.39 1667.36 232.139C1665.15 222.852 1663.06 214.08 1662.03 206.967C1656.37 167.752 1659.98 135.38 1673.07 108.003C1681.24 90.9217 1693.29 75.6956 1708.89 62.7479C1726.32 48.2845 1748.69 36.2271 1775.39 26.9115C1798.48 18.8523 1824.51 12.9991 1852.76 9.5138C1879.65 6.19633 1907.95 5.08478 1936.9 6.20967C1993.82 8.42133 2049.5 19.205 2093.68 36.5722C2117.3 45.8554 2138.74 57.0243 2157.41 69.7661C2175.11 81.8425 2190.44 95.4079 2202.98 110.089C2226.6 137.744 2240.17 169.216 2242.21 201.1L2240.36 201.132C2236.01 133.235 2180.75 72.0006 2092.56 37.333C1998.9 0.516574 1865.94 -3.53494 1776.41 27.7027C1687.73 58.6468 1650.92 117.261 1663.87 206.896C1664.89 213.987 1666.98 222.748 1669.19 232.023C1675.7 259.333 1683.81 293.322 1675.26 322.043C1670.61 337.687 1661.26 350.259 1647.48 359.412C1639.72 364.558 1630.38 368.764 1619.69 371.91C1608.32 375.258 1595.11 377.506 1580.41 378.593C1574.4 379.037 1568.29 379.26 1562.07 379.26C1539.43 379.26 1515.3 376.303 1488.87 370.312C1459.09 363.563 1430.36 353.824 1407.27 346C1349.36 326.373 1294.12 304.287 1243.07 280.352C1198.85 259.614 1159.84 235.377 1122.11 211.939C1078.87 185.075 1034.15 157.296 981.612 134.861C918.652 107.978 846.516 97.7587 767.206 104.491C606.775 118.108 441.514 201.266 355.856 272.767C329.549 294.725 309.757 318.352 290.614 341.201C283.602 349.571 276.353 358.227 268.842 366.736C253.61 383.992 238.566 396.349 221.499 405.619C210.845 411.403 199.287 415.964 187.146 419.173C173.646 422.74 158.942 424.769 143.44 425.201C140.936 425.268 138.414 425.303 135.888 425.303Z" fill="white"/>
</g>
</svg>
